<mxfile host="app.diagrams.net" modified="2021-07-12T03:36:52.938Z" agent="5.0 (Macintosh; Intel Mac OS X 10_15_7) AppleWebKit/537.36 (KHTML, like Gecko) Chrome/91.0.4472.114 Safari/537.36" etag="RJ8fwdCheo1Zes0QSKS9" version="14.8.4" type="github" pages="6">
  <diagram id="SJXH6UAzchU-UXwdG-ln" name="dpa流程">
    <mxGraphModel dx="1426" dy="794" grid="1" gridSize="10" guides="1" tooltips="1" connect="1" arrows="1" fold="1" page="1" pageScale="1" pageWidth="1169" pageHeight="827" math="0" shadow="0">
      <root>
        <mxCell id="nw2DWrwCXYvOcLke9YjN-0" />
        <mxCell id="nw2DWrwCXYvOcLke9YjN-1" parent="nw2DWrwCXYvOcLke9YjN-0" />
        <mxCell id="nw2DWrwCXYvOcLke9YjN-5" style="edgeStyle=orthogonalEdgeStyle;orthogonalLoop=1;jettySize=auto;html=1;strokeColor=#b85450;fontColor=#5C5C5C;strokeWidth=2;fillColor=#f8cecc;" parent="nw2DWrwCXYvOcLke9YjN-1" edge="1">
          <mxGeometry relative="1" as="geometry">
            <mxPoint x="300" y="125" as="targetPoint" />
            <mxPoint x="236.25" y="125" as="sourcePoint" />
            <Array as="points">
              <mxPoint x="266.25" y="125" />
              <mxPoint x="266.25" y="125" />
            </Array>
          </mxGeometry>
        </mxCell>
        <mxCell id="nw2DWrwCXYvOcLke9YjN-4" value="" style="pointerEvents=1;shadow=0;dashed=0;html=1;labelPosition=center;verticalLabelPosition=bottom;verticalAlign=top;outlineConnect=0;align=center;shape=mxgraph.office.users.users;strokeWidth=2;strokeColor=#b85450;fillColor=#f8cecc;" parent="nw2DWrwCXYvOcLke9YjN-1" vertex="1">
          <mxGeometry x="166.25" y="100" width="50" height="50" as="geometry" />
        </mxCell>
        <mxCell id="nw2DWrwCXYvOcLke9YjN-9" style="orthogonalLoop=1;jettySize=auto;html=1;strokeColor=#006658;fontColor=#5C5C5C;strokeWidth=2;exitX=0.996;exitY=-0.25;exitDx=0;exitDy=0;exitPerimeter=0;" parent="nw2DWrwCXYvOcLke9YjN-1" source="nw2DWrwCXYvOcLke9YjN-12" edge="1">
          <mxGeometry relative="1" as="geometry">
            <mxPoint x="320" y="580" as="targetPoint" />
            <mxPoint x="230" y="394" as="sourcePoint" />
          </mxGeometry>
        </mxCell>
        <mxCell id="nw2DWrwCXYvOcLke9YjN-11" value="&lt;font style=&quot;font-size: 15px&quot; face=&quot;Comic Sans MS&quot;&gt;网名&lt;/font&gt;" style="text;html=1;align=center;verticalAlign=middle;resizable=0;points=[];autosize=1;fontColor=#5C5C5C;" parent="nw2DWrwCXYvOcLke9YjN-1" vertex="1">
          <mxGeometry x="171.25" y="150" width="50" height="20" as="geometry" />
        </mxCell>
        <mxCell id="nw2DWrwCXYvOcLke9YjN-12" value="&lt;font face=&quot;Comic Sans MS&quot; style=&quot;font-size: 15px&quot;&gt;广告主&lt;/font&gt;" style="text;html=1;align=center;verticalAlign=middle;resizable=0;points=[];autosize=1;fontColor=#5C5C5C;" parent="nw2DWrwCXYvOcLke9YjN-1" vertex="1">
          <mxGeometry x="156.25" y="498.4" width="60" height="20" as="geometry" />
        </mxCell>
        <mxCell id="nw2DWrwCXYvOcLke9YjN-17" value="&lt;font style=&quot;font-size: 15px&quot; face=&quot;Comic Sans MS&quot;&gt;&lt;font color=&quot;#545454&quot;&gt;按人群和商品&lt;br&gt;进行分析和匹配&lt;br&gt;（算法端）&lt;/font&gt;&lt;br&gt;&lt;/font&gt;" style="text;html=1;align=center;verticalAlign=middle;resizable=0;points=[];autosize=1;fontColor=#5C5C5C;" parent="nw2DWrwCXYvOcLke9YjN-1" vertex="1">
          <mxGeometry x="844" y="340" width="120" height="50" as="geometry" />
        </mxCell>
        <mxCell id="nw2DWrwCXYvOcLke9YjN-19" value="&lt;font style=&quot;font-size: 15px&quot; face=&quot;Comic Sans MS&quot;&gt;商品库&lt;/font&gt;" style="text;html=1;align=center;verticalAlign=middle;resizable=0;points=[];autosize=1;fontColor=#5C5C5C;" parent="nw2DWrwCXYvOcLke9YjN-1" vertex="1">
          <mxGeometry x="337.5" y="438.4" width="60" height="20" as="geometry" />
        </mxCell>
        <mxCell id="nw2DWrwCXYvOcLke9YjN-26" style="edgeStyle=none;orthogonalLoop=1;jettySize=auto;html=1;fontColor=#5C5C5C;strokeWidth=2;strokeColor=#1BA1E2;" parent="nw2DWrwCXYvOcLke9YjN-1" edge="1">
          <mxGeometry relative="1" as="geometry">
            <mxPoint x="550.2" y="408" as="targetPoint" />
            <mxPoint x="450" y="408" as="sourcePoint" />
          </mxGeometry>
        </mxCell>
        <mxCell id="nw2DWrwCXYvOcLke9YjN-21" value="" style="verticalLabelPosition=bottom;html=1;verticalAlign=top;align=center;fillColor=#647687;shape=mxgraph.azure.user;fontColor=#ffffff;strokeColor=#314354;strokeWidth=2;" parent="nw2DWrwCXYvOcLke9YjN-1" vertex="1">
          <mxGeometry x="160" y="438.4" width="47.5" height="50" as="geometry" />
        </mxCell>
        <mxCell id="nw2DWrwCXYvOcLke9YjN-23" style="orthogonalLoop=1;jettySize=auto;html=1;strokeColor=#006658;fontColor=#5C5C5C;strokeWidth=2;" parent="nw2DWrwCXYvOcLke9YjN-1" edge="1">
          <mxGeometry relative="1" as="geometry">
            <mxPoint x="326.25" y="409" as="targetPoint" />
            <mxPoint x="216.25" y="479" as="sourcePoint" />
          </mxGeometry>
        </mxCell>
        <mxCell id="nw2DWrwCXYvOcLke9YjN-24" value="" style="shadow=0;dashed=0;html=1;labelPosition=center;verticalLabelPosition=bottom;verticalAlign=top;align=center;outlineConnect=0;shape=mxgraph.veeam.failover_plan;fillColor=#21C0A5;strokeColor=#006658;fontColor=#5C5C5C;strokeWidth=2;" parent="nw2DWrwCXYvOcLke9YjN-1" vertex="1">
          <mxGeometry x="337.5" y="548.2" width="60.4" height="74.4" as="geometry" />
        </mxCell>
        <mxCell id="nw2DWrwCXYvOcLke9YjN-25" value="&lt;font face=&quot;Comic Sans MS&quot; style=&quot;font-size: 15px&quot;&gt;(AD 平台)建立商品计划、组&lt;/font&gt;" style="text;html=1;align=center;verticalAlign=middle;resizable=0;points=[];autosize=1;fontColor=#5C5C5C;" parent="nw2DWrwCXYvOcLke9YjN-1" vertex="1">
          <mxGeometry x="267.5" y="630" width="200" height="20" as="geometry" />
        </mxCell>
        <mxCell id="nw2DWrwCXYvOcLke9YjN-37" value="" style="points=[[0.015,0.015,0],[0.985,0.015,0],[0.985,0.985,0],[0.015,0.985,0],[0.25,0,0],[0.5,0,0],[0.75,0,0],[1,0.25,0],[1,0.5,0],[1,0.75,0],[0.75,1,0],[0.5,1,0],[0.25,1,0],[0,0.75,0],[0,0.5,0],[0,0.25,0]];verticalLabelPosition=bottom;html=1;verticalAlign=top;aspect=fixed;align=center;pointerEvents=1;shape=mxgraph.cisco19.rect;prIcon=flow_collector;fillColor=#1ba1e2;strokeColor=#006EAF;fontColor=#ffffff;" parent="nw2DWrwCXYvOcLke9YjN-1" vertex="1">
          <mxGeometry x="566.2" y="364" width="89.6" height="70" as="geometry" />
        </mxCell>
        <mxCell id="nw2DWrwCXYvOcLke9YjN-38" value="&lt;font style=&quot;font-size: 15px&quot; face=&quot;Comic Sans MS&quot;&gt;创建商品集合&lt;br&gt;（筛选商品）&lt;/font&gt;" style="text;html=1;align=center;verticalAlign=middle;resizable=0;points=[];autosize=1;fontColor=#5C5C5C;" parent="nw2DWrwCXYvOcLke9YjN-1" vertex="1">
          <mxGeometry x="556" y="438.4" width="110" height="40" as="geometry" />
        </mxCell>
        <mxCell id="nw2DWrwCXYvOcLke9YjN-41" style="edgeStyle=none;orthogonalLoop=1;jettySize=auto;html=1;strokeColor=#006658;fontColor=#5C5C5C;strokeWidth=2;" parent="nw2DWrwCXYvOcLke9YjN-1" edge="1">
          <mxGeometry relative="1" as="geometry">
            <mxPoint x="565" y="586.6999999999999" as="targetPoint" />
            <mxPoint x="410" y="587" as="sourcePoint" />
          </mxGeometry>
        </mxCell>
        <mxCell id="nw2DWrwCXYvOcLke9YjN-42" value="&lt;font color=&quot;#545454&quot;&gt;Search&lt;/font&gt;" style="strokeWidth=1;shadow=0;dashed=0;align=center;html=1;shape=mxgraph.mockup.forms.searchBox;strokeColor=#b85450;mainText=;strokeColor2=#008cff;fontSize=17;align=left;spacingLeft=3;rounded=0;sketch=0;fillColor=#f8cecc;" parent="nw2DWrwCXYvOcLke9YjN-1" vertex="1">
          <mxGeometry x="306" y="110" width="150" height="30" as="geometry" />
        </mxCell>
        <mxCell id="nw2DWrwCXYvOcLke9YjN-50" value="" style="outlineConnect=0;fontColor=#5C5C5C;gradientDirection=north;dashed=0;verticalLabelPosition=bottom;verticalAlign=top;align=center;html=1;fontSize=12;fontStyle=0;aspect=fixed;shape=mxgraph.aws4.resourceIcon;resIcon=mxgraph.aws4.workspaces;rounded=0;sketch=0;fillColor=#21C0A5;strokeColor=#006658;" parent="nw2DWrwCXYvOcLke9YjN-1" vertex="1">
          <mxGeometry x="572.0000000000001" y="544.5999999999999" width="78" height="78" as="geometry" />
        </mxCell>
        <mxCell id="nw2DWrwCXYvOcLke9YjN-51" value="&lt;font face=&quot;Comic Sans MS&quot;&gt;&lt;span style=&quot;font-size: 15px&quot;&gt;创意模板&lt;/span&gt;&lt;/font&gt;" style="text;html=1;align=center;verticalAlign=middle;resizable=0;points=[];autosize=1;fontColor=#5C5C5C;" parent="nw2DWrwCXYvOcLke9YjN-1" vertex="1">
          <mxGeometry x="571" y="630" width="80" height="20" as="geometry" />
        </mxCell>
        <mxCell id="nw2DWrwCXYvOcLke9YjN-57" style="edgeStyle=none;orthogonalLoop=1;jettySize=auto;html=1;fontColor=#5C5C5C;strokeWidth=2;strokeColor=#1BA1E2;" parent="nw2DWrwCXYvOcLke9YjN-1" edge="1">
          <mxGeometry relative="1" as="geometry">
            <mxPoint x="860" y="310" as="targetPoint" />
            <mxPoint x="670" y="400" as="sourcePoint" />
          </mxGeometry>
        </mxCell>
        <mxCell id="vPvBT19LjmJiKO63VgOE-2" value="&lt;font style=&quot;font-size: 14px&quot; color=&quot;#333333&quot;&gt;skuIds&lt;/font&gt;" style="edgeLabel;html=1;align=center;verticalAlign=middle;resizable=0;points=[];fontFamily=Comic Sans MS;fontSize=15;fontColor=#2B2B2B;" parent="nw2DWrwCXYvOcLke9YjN-57" vertex="1" connectable="0">
          <mxGeometry x="0.0042" relative="1" as="geometry">
            <mxPoint as="offset" />
          </mxGeometry>
        </mxCell>
        <mxCell id="nw2DWrwCXYvOcLke9YjN-59" value="&lt;font face=&quot;Comic Sans MS&quot; style=&quot;font-size: 15px&quot;&gt;&lt;font color=&quot;#545454&quot;&gt;创意拼接和商品召回&lt;br&gt;（检索端）&lt;/font&gt;&lt;br&gt;&lt;/font&gt;" style="text;html=1;align=center;verticalAlign=middle;resizable=0;points=[];autosize=1;fontColor=#5C5C5C;" parent="nw2DWrwCXYvOcLke9YjN-1" vertex="1">
          <mxGeometry x="630" y="180" width="150" height="40" as="geometry" />
        </mxCell>
        <mxCell id="nw2DWrwCXYvOcLke9YjN-61" value="" style="verticalAlign=top;verticalLabelPosition=bottom;labelPosition=center;align=center;html=1;outlineConnect=0;fillColor=#f8cecc;strokeColor=#b85450;gradientDirection=north;strokeWidth=2;shape=mxgraph.networks.monitor;rounded=0;sketch=0;" parent="nw2DWrwCXYvOcLke9YjN-1" vertex="1">
          <mxGeometry x="650" y="100" width="90" height="70" as="geometry" />
        </mxCell>
        <mxCell id="nw2DWrwCXYvOcLke9YjN-62" value="&lt;font face=&quot;Comic Sans MS&quot; style=&quot;font-size: 15px&quot;&gt;DPA广告展现&lt;/font&gt;" style="text;html=1;align=center;verticalAlign=middle;resizable=0;points=[];autosize=1;fontColor=#5C5C5C;" parent="nw2DWrwCXYvOcLke9YjN-1" vertex="1">
          <mxGeometry x="490" y="140" width="110" height="20" as="geometry" />
        </mxCell>
        <mxCell id="nw2DWrwCXYvOcLke9YjN-63" value="&lt;font style=&quot;font-size: 18px&quot; face=&quot;Comic Sans MS&quot;&gt;AD&lt;/font&gt;" style="text;html=1;strokeColor=none;fillColor=none;align=center;verticalAlign=middle;whiteSpace=wrap;rounded=0;sketch=0;fontColor=#5C5C5C;" parent="nw2DWrwCXYvOcLke9YjN-1" vertex="1">
          <mxGeometry x="675" y="115" width="40" height="20" as="geometry" />
        </mxCell>
        <mxCell id="nw2DWrwCXYvOcLke9YjN-65" style="edgeStyle=none;orthogonalLoop=1;jettySize=auto;html=1;fontColor=#5C5C5C;strokeWidth=2;strokeColor=#1BA1E2;" parent="nw2DWrwCXYvOcLke9YjN-1" edge="1">
          <mxGeometry relative="1" as="geometry">
            <mxPoint x="860" y="300" as="targetPoint" />
            <mxPoint x="410" y="360" as="sourcePoint" />
          </mxGeometry>
        </mxCell>
        <mxCell id="vPvBT19LjmJiKO63VgOE-3" value="&lt;span style=&quot;font-size: 14px ; background-color: rgb(248 , 249 , 250)&quot;&gt;&lt;font color=&quot;#333333&quot;&gt;推送结构化商品信息&lt;/font&gt;&lt;/span&gt;" style="edgeLabel;html=1;align=center;verticalAlign=middle;resizable=0;points=[];fontSize=15;fontFamily=Comic Sans MS;rotation=0;" parent="nw2DWrwCXYvOcLke9YjN-65" vertex="1" connectable="0">
          <mxGeometry x="-0.0654" y="2" relative="1" as="geometry">
            <mxPoint x="-35" y="-2" as="offset" />
          </mxGeometry>
        </mxCell>
        <mxCell id="nw2DWrwCXYvOcLke9YjN-67" value="" style="outlineConnect=0;gradientDirection=north;fillColor=#d5e8d4;strokeColor=#82b366;dashed=0;verticalLabelPosition=bottom;verticalAlign=top;align=center;html=1;fontSize=12;fontStyle=0;aspect=fixed;shape=mxgraph.aws4.resourceIcon;resIcon=mxgraph.aws4.machine_learning;rounded=0;sketch=0;" parent="nw2DWrwCXYvOcLke9YjN-1" vertex="1">
          <mxGeometry x="860" y="240" width="88" height="88" as="geometry" />
        </mxCell>
        <mxCell id="Aw5jEaWQ8cDrRMpGg5iR-2" value="" style="endArrow=async;html=1;strokeColor=#b85450;strokeWidth=2;fillColor=#f8cecc;fontColor=#5C5C5C;endFill=1;" parent="nw2DWrwCXYvOcLke9YjN-1" edge="1">
          <mxGeometry width="50" height="50" relative="1" as="geometry">
            <mxPoint x="475" y="124.5" as="sourcePoint" />
            <mxPoint x="620" y="125" as="targetPoint" />
          </mxGeometry>
        </mxCell>
        <mxCell id="Aw5jEaWQ8cDrRMpGg5iR-4" value="" style="endArrow=async;html=1;strokeColor=#b85450;strokeWidth=2;fillColor=#f8cecc;fontColor=#5C5C5C;endFill=1;" parent="nw2DWrwCXYvOcLke9YjN-1" edge="1">
          <mxGeometry width="50" height="50" relative="1" as="geometry">
            <mxPoint x="619.6" y="134" as="sourcePoint" />
            <mxPoint x="474.6" y="134" as="targetPoint" />
          </mxGeometry>
        </mxCell>
        <mxCell id="qeJBSPBHF9ih51C6zXTI-0" value="&lt;font style=&quot;font-size: 14px&quot; face=&quot;Comic Sans MS&quot; color=&quot;#333333&quot;&gt;对接商品信息&lt;/font&gt;" style="text;html=1;align=center;verticalAlign=middle;resizable=0;points=[];autosize=1;strokeColor=none;rotation=-35;" parent="nw2DWrwCXYvOcLke9YjN-1" vertex="1">
          <mxGeometry x="207.5" y="418.4" width="100" height="20" as="geometry" />
        </mxCell>
        <mxCell id="qeJBSPBHF9ih51C6zXTI-1" value="" style="html=1;aspect=fixed;shadow=0;align=center;verticalAlign=top;shape=mxgraph.gcp2.database_uploading;fillColor=#1ba1e2;strokeColor=#006EAF;fontColor=#ffffff;" parent="nw2DWrwCXYvOcLke9YjN-1" vertex="1">
          <mxGeometry x="337.5" y="364" width="83.33" height="70" as="geometry" />
        </mxCell>
        <mxCell id="qeJBSPBHF9ih51C6zXTI-3" value="&lt;font color=&quot;#333333&quot; face=&quot;Comic Sans MS&quot;&gt;默认计费关键词&lt;/font&gt;" style="text;html=1;strokeColor=none;fillColor=none;align=center;verticalAlign=middle;whiteSpace=wrap;rounded=0;" parent="nw2DWrwCXYvOcLke9YjN-1" vertex="1">
          <mxGeometry x="420" y="570" width="145" height="20" as="geometry" />
        </mxCell>
        <mxCell id="vPvBT19LjmJiKO63VgOE-5" value="&lt;font color=&quot;#191919&quot;&gt;query&lt;/font&gt;" style="text;html=1;align=center;verticalAlign=middle;resizable=0;points=[];autosize=1;strokeColor=none;fontSize=15;fontFamily=Comic Sans MS;rotation=45;" parent="nw2DWrwCXYvOcLke9YjN-1" vertex="1">
          <mxGeometry x="810" y="170" width="50" height="20" as="geometry" />
        </mxCell>
        <mxCell id="vPvBT19LjmJiKO63VgOE-9" value="" style="endArrow=async;html=1;strokeColor=#82b366;strokeWidth=2;fillColor=#d5e8d4;fontColor=#5C5C5C;endFill=1;" parent="nw2DWrwCXYvOcLke9YjN-1" edge="1">
          <mxGeometry width="50" height="50" relative="1" as="geometry">
            <mxPoint x="760" y="140" as="sourcePoint" />
            <mxPoint x="860" y="220" as="targetPoint" />
          </mxGeometry>
        </mxCell>
        <mxCell id="vPvBT19LjmJiKO63VgOE-10" value="" style="endArrow=async;html=1;strokeColor=#82b366;strokeWidth=2;fillColor=#d5e8d4;fontColor=#5C5C5C;endFill=1;" parent="nw2DWrwCXYvOcLke9YjN-1" edge="1">
          <mxGeometry width="50" height="50" relative="1" as="geometry">
            <mxPoint x="860" y="230" as="sourcePoint" />
            <mxPoint x="760" y="150" as="targetPoint" />
          </mxGeometry>
        </mxCell>
        <mxCell id="Yo5Dx6syS5xJVPen08iN-2" style="orthogonalLoop=1;jettySize=auto;html=1;strokeColor=#006658;fontColor=#5C5C5C;strokeWidth=2;" parent="nw2DWrwCXYvOcLke9YjN-1" edge="1">
          <mxGeometry relative="1" as="geometry">
            <mxPoint x="860" y="400" as="targetPoint" />
            <mxPoint x="670" y="580" as="sourcePoint" />
          </mxGeometry>
        </mxCell>
        <mxCell id="Yo5Dx6syS5xJVPen08iN-3" value="&lt;font style=&quot;font-size: 14px&quot; color=&quot;#262626&quot; face=&quot;Comic Sans MS&quot;&gt;广告物料信息&lt;/font&gt;" style="text;html=1;align=center;verticalAlign=middle;resizable=0;points=[];autosize=1;strokeColor=none;rotation=-45;" parent="nw2DWrwCXYvOcLke9YjN-1" vertex="1">
          <mxGeometry x="730" y="478.4" width="100" height="20" as="geometry" />
        </mxCell>
      </root>
    </mxGraphModel>
  </diagram>
  <diagram id="QuAjL29x0YdXgFLmzHyW" name="直投+快投">
    <mxGraphModel dx="1426" dy="794" grid="1" gridSize="10" guides="1" tooltips="1" connect="1" arrows="1" fold="1" page="1" pageScale="1" pageWidth="1169" pageHeight="827" math="0" shadow="0">
      <root>
        <mxCell id="ukLUVH2c7tUCWspS7jZm-0" />
        <mxCell id="ukLUVH2c7tUCWspS7jZm-1" parent="ukLUVH2c7tUCWspS7jZm-0" />
        <mxCell id="c5lcdbn4Do4ufAMMGosH-68" value="" style="shape=table;html=1;whiteSpace=wrap;startSize=0;container=1;collapsible=0;childLayout=tableLayout;columnLines=1;fixedRows=0;arcSize=15;horizontal=1;labelBackgroundColor=#FFFFFF;fontFamily=Comic Sans MS;fontSize=14;labelBorderColor=none;strokeWidth=2;sketch=1;" parent="ukLUVH2c7tUCWspS7jZm-1" vertex="1">
          <mxGeometry x="150" y="150" width="830" height="550" as="geometry" />
        </mxCell>
        <mxCell id="c5lcdbn4Do4ufAMMGosH-81" value="" style="shape=partialRectangle;html=1;whiteSpace=wrap;collapsible=0;dropTarget=0;pointerEvents=0;fillColor=none;top=0;left=0;bottom=0;right=0;points=[[0,0.5],[1,0.5]];portConstraint=eastwest;labelBackgroundColor=#FFFFFF;fontFamily=Comic Sans MS;fontSize=14;labelBorderColor=none;strokeWidth=2;sketch=1;" parent="c5lcdbn4Do4ufAMMGosH-68" vertex="1">
          <mxGeometry width="830" height="91" as="geometry" />
        </mxCell>
        <mxCell id="c5lcdbn4Do4ufAMMGosH-114" value="功能点" style="shape=partialRectangle;html=1;whiteSpace=wrap;connectable=0;fillColor=#f8cecc;top=0;left=0;bottom=0;right=0;overflow=hidden;labelBackgroundColor=#FFFFFF;fontFamily=Comic Sans MS;fontSize=14;labelBorderColor=none;strokeWidth=2;strokeColor=#b85450;sketch=1;" parent="c5lcdbn4Do4ufAMMGosH-81" vertex="1">
          <mxGeometry width="208" height="91" as="geometry" />
        </mxCell>
        <mxCell id="c5lcdbn4Do4ufAMMGosH-82" value="直投" style="shape=partialRectangle;html=1;whiteSpace=wrap;connectable=0;fillColor=#f8cecc;top=0;left=0;bottom=0;right=0;overflow=hidden;labelBackgroundColor=#FFFFFF;fontFamily=Comic Sans MS;fontSize=14;labelBorderColor=none;strokeWidth=2;strokeColor=#b85450;sketch=1;" parent="c5lcdbn4Do4ufAMMGosH-81" vertex="1">
          <mxGeometry x="208" width="207" height="91" as="geometry" />
        </mxCell>
        <mxCell id="c5lcdbn4Do4ufAMMGosH-83" value="快投" style="shape=partialRectangle;html=1;whiteSpace=wrap;connectable=0;fillColor=#f8cecc;top=0;left=0;bottom=0;right=0;overflow=hidden;labelBackgroundColor=#FFFFFF;fontFamily=Comic Sans MS;fontSize=14;labelBorderColor=none;strokeWidth=2;strokeColor=#b85450;sketch=1;" parent="c5lcdbn4Do4ufAMMGosH-81" vertex="1">
          <mxGeometry x="415" width="208" height="91" as="geometry" />
        </mxCell>
        <mxCell id="c5lcdbn4Do4ufAMMGosH-84" value="旭日" style="shape=partialRectangle;html=1;whiteSpace=wrap;connectable=0;fillColor=#f8cecc;top=0;left=0;bottom=0;right=0;overflow=hidden;labelBackgroundColor=#FFFFFF;fontFamily=Comic Sans MS;fontSize=14;labelBorderColor=none;strokeWidth=2;strokeColor=#b85450;sketch=1;" parent="c5lcdbn4Do4ufAMMGosH-81" vertex="1">
          <mxGeometry x="623" width="207" height="91" as="geometry" />
        </mxCell>
        <mxCell id="c5lcdbn4Do4ufAMMGosH-110" value="" style="shape=partialRectangle;html=1;whiteSpace=wrap;collapsible=0;dropTarget=0;pointerEvents=0;fillColor=none;top=0;left=0;bottom=0;right=0;points=[[0,0.5],[1,0.5]];portConstraint=eastwest;labelBackgroundColor=#FFFFFF;fontFamily=Comic Sans MS;fontSize=14;labelBorderColor=none;strokeWidth=2;sketch=1;" parent="c5lcdbn4Do4ufAMMGosH-68" vertex="1">
          <mxGeometry y="91" width="830" height="92" as="geometry" />
        </mxCell>
        <mxCell id="c5lcdbn4Do4ufAMMGosH-115" value="账户结构" style="shape=partialRectangle;html=1;whiteSpace=wrap;connectable=0;fillColor=#f8cecc;top=0;left=0;bottom=0;right=0;overflow=hidden;labelBackgroundColor=#FFFFFF;fontFamily=Comic Sans MS;fontSize=14;labelBorderColor=none;strokeWidth=2;strokeColor=#b85450;sketch=1;" parent="c5lcdbn4Do4ufAMMGosH-110" vertex="1">
          <mxGeometry width="208" height="92" as="geometry" />
        </mxCell>
        <mxCell id="c5lcdbn4Do4ufAMMGosH-111" value="推广计划/推广组" style="shape=partialRectangle;html=1;whiteSpace=wrap;connectable=0;fillColor=none;top=0;left=0;bottom=0;right=0;overflow=hidden;labelBackgroundColor=#FFFFFF;fontFamily=Comic Sans MS;fontSize=14;labelBorderColor=none;strokeWidth=2;sketch=1;" parent="c5lcdbn4Do4ufAMMGosH-110" vertex="1">
          <mxGeometry x="208" width="207" height="92" as="geometry" />
        </mxCell>
        <mxCell id="c5lcdbn4Do4ufAMMGosH-112" value="复用旭日的账户结构" style="shape=partialRectangle;html=1;whiteSpace=wrap;connectable=0;fillColor=none;top=0;left=0;bottom=0;right=0;overflow=hidden;labelBackgroundColor=#FFFFFF;fontFamily=Comic Sans MS;fontSize=14;labelBorderColor=none;strokeWidth=2;sketch=1;" parent="c5lcdbn4Do4ufAMMGosH-110" vertex="1">
          <mxGeometry x="415" width="208" height="92" as="geometry" />
        </mxCell>
        <mxCell id="c5lcdbn4Do4ufAMMGosH-113" value="&lt;span style=&quot;font-size: 14px;&quot;&gt;推广计划/推广组/关键词/创意&lt;/span&gt;" style="shape=partialRectangle;html=1;whiteSpace=wrap;connectable=0;fillColor=none;top=0;left=0;bottom=0;right=0;overflow=hidden;labelBackgroundColor=#FFFFFF;fontFamily=Comic Sans MS;fontSize=14;labelBorderColor=none;strokeWidth=2;sketch=1;" parent="c5lcdbn4Do4ufAMMGosH-110" vertex="1">
          <mxGeometry x="623" width="207" height="92" as="geometry" />
        </mxCell>
        <mxCell id="c5lcdbn4Do4ufAMMGosH-85" value="" style="shape=partialRectangle;html=1;whiteSpace=wrap;collapsible=0;dropTarget=0;pointerEvents=0;fillColor=none;top=0;left=0;bottom=0;right=0;points=[[0,0.5],[1,0.5]];portConstraint=eastwest;labelBackgroundColor=#FFFFFF;fontFamily=Comic Sans MS;fontSize=14;labelBorderColor=none;strokeWidth=2;sketch=1;" parent="c5lcdbn4Do4ufAMMGosH-68" vertex="1">
          <mxGeometry y="183" width="830" height="91" as="geometry" />
        </mxCell>
        <mxCell id="c5lcdbn4Do4ufAMMGosH-116" value="关键词" style="shape=partialRectangle;html=1;whiteSpace=wrap;connectable=0;fillColor=#f8cecc;top=0;left=0;bottom=0;right=0;overflow=hidden;labelBackgroundColor=#FFFFFF;fontFamily=Comic Sans MS;fontSize=14;labelBorderColor=none;strokeWidth=2;strokeColor=#b85450;sketch=1;" parent="c5lcdbn4Do4ufAMMGosH-85" vertex="1">
          <mxGeometry width="208" height="91" as="geometry" />
        </mxCell>
        <mxCell id="c5lcdbn4Do4ufAMMGosH-86" value="无需添加关键词&lt;br style=&quot;font-size: 14px;&quot;&gt;（默认创建计费关键词）" style="shape=partialRectangle;html=1;whiteSpace=wrap;connectable=0;fillColor=none;top=0;left=0;bottom=0;right=0;overflow=hidden;labelBackgroundColor=#FFFFFF;fontFamily=Comic Sans MS;fontSize=14;labelBorderColor=none;strokeWidth=2;sketch=1;" parent="c5lcdbn4Do4ufAMMGosH-85" vertex="1">
          <mxGeometry x="208" width="207" height="91" as="geometry" />
        </mxCell>
        <mxCell id="c5lcdbn4Do4ufAMMGosH-87" value="复用旭日关键词" style="shape=partialRectangle;html=1;whiteSpace=wrap;connectable=0;fillColor=none;top=0;left=0;bottom=0;right=0;overflow=hidden;labelBackgroundColor=#FFFFFF;fontFamily=Comic Sans MS;fontSize=14;labelBorderColor=none;strokeWidth=2;sketch=1;" parent="c5lcdbn4Do4ufAMMGosH-85" vertex="1">
          <mxGeometry x="415" width="208" height="91" as="geometry" />
        </mxCell>
        <mxCell id="c5lcdbn4Do4ufAMMGosH-88" value="需添加关键词" style="shape=partialRectangle;html=1;whiteSpace=wrap;connectable=0;fillColor=none;top=0;left=0;bottom=0;right=0;overflow=hidden;labelBackgroundColor=#FFFFFF;fontFamily=Comic Sans MS;fontSize=14;labelBorderColor=none;strokeWidth=2;sketch=1;" parent="c5lcdbn4Do4ufAMMGosH-85" vertex="1">
          <mxGeometry x="623" width="207" height="91" as="geometry" />
        </mxCell>
        <mxCell id="c5lcdbn4Do4ufAMMGosH-69" value="" style="shape=partialRectangle;html=1;whiteSpace=wrap;collapsible=0;dropTarget=0;pointerEvents=0;fillColor=none;top=0;left=0;bottom=0;right=0;points=[[0,0.5],[1,0.5]];portConstraint=eastwest;labelBackgroundColor=#FFFFFF;fontFamily=Comic Sans MS;fontSize=14;labelBorderColor=none;strokeWidth=2;sketch=1;" parent="c5lcdbn4Do4ufAMMGosH-68" vertex="1">
          <mxGeometry y="274" width="830" height="93" as="geometry" />
        </mxCell>
        <mxCell id="c5lcdbn4Do4ufAMMGosH-117" value="召回方式" style="shape=partialRectangle;html=1;whiteSpace=wrap;connectable=0;fillColor=#f8cecc;top=0;left=0;bottom=0;right=0;overflow=hidden;labelBackgroundColor=#FFFFFF;fontFamily=Comic Sans MS;fontSize=14;labelBorderColor=none;strokeWidth=2;strokeColor=#b85450;sketch=1;" parent="c5lcdbn4Do4ufAMMGosH-69" vertex="1">
          <mxGeometry width="208" height="93" as="geometry" />
        </mxCell>
        <mxCell id="c5lcdbn4Do4ufAMMGosH-70" value="查询词 query 直接召回商品" style="shape=partialRectangle;html=1;whiteSpace=wrap;connectable=0;fillColor=none;top=0;left=0;bottom=0;right=0;overflow=hidden;labelBackgroundColor=#FFFFFF;fontFamily=Comic Sans MS;fontSize=14;labelBorderColor=none;strokeWidth=2;sketch=1;" parent="c5lcdbn4Do4ufAMMGosH-69" vertex="1">
          <mxGeometry x="208" width="207" height="93" as="geometry" />
        </mxCell>
        <mxCell id="c5lcdbn4Do4ufAMMGosH-71" value="查询词召回关键词，关键词关联商品" style="shape=partialRectangle;html=1;whiteSpace=wrap;connectable=0;fillColor=none;top=0;left=0;bottom=0;right=0;overflow=hidden;labelBackgroundColor=#FFFFFF;fontFamily=Comic Sans MS;fontSize=14;labelBorderColor=none;strokeWidth=2;sketch=1;" parent="c5lcdbn4Do4ufAMMGosH-69" vertex="1">
          <mxGeometry x="415" width="208" height="93" as="geometry" />
        </mxCell>
        <mxCell id="c5lcdbn4Do4ufAMMGosH-72" value="查询词召回关键词" style="shape=partialRectangle;html=1;whiteSpace=wrap;connectable=0;fillColor=none;top=0;left=0;bottom=0;right=0;overflow=hidden;labelBackgroundColor=#FFFFFF;fontFamily=Comic Sans MS;fontSize=14;labelBorderColor=none;strokeWidth=2;sketch=1;" parent="c5lcdbn4Do4ufAMMGosH-69" vertex="1">
          <mxGeometry x="623" width="207" height="93" as="geometry" />
        </mxCell>
        <mxCell id="c5lcdbn4Do4ufAMMGosH-73" value="" style="shape=partialRectangle;html=1;whiteSpace=wrap;collapsible=0;dropTarget=0;pointerEvents=0;fillColor=none;top=0;left=0;bottom=0;right=0;points=[[0,0.5],[1,0.5]];portConstraint=eastwest;labelBackgroundColor=#FFFFFF;fontFamily=Comic Sans MS;fontSize=14;labelBorderColor=none;strokeWidth=2;sketch=1;" parent="c5lcdbn4Do4ufAMMGosH-68" vertex="1">
          <mxGeometry y="367" width="830" height="92" as="geometry" />
        </mxCell>
        <mxCell id="c5lcdbn4Do4ufAMMGosH-118" value="创意来源" style="shape=partialRectangle;html=1;whiteSpace=wrap;connectable=0;fillColor=#f8cecc;top=0;left=0;bottom=0;right=0;overflow=hidden;labelBackgroundColor=#FFFFFF;fontFamily=Comic Sans MS;fontSize=14;labelBorderColor=none;strokeWidth=2;strokeColor=#b85450;sketch=1;" parent="c5lcdbn4Do4ufAMMGosH-73" vertex="1">
          <mxGeometry width="208" height="92" as="geometry" />
        </mxCell>
        <mxCell id="c5lcdbn4Do4ufAMMGosH-74" value="商品库 + 创意模板设置（推广组）" style="shape=partialRectangle;html=1;whiteSpace=wrap;connectable=0;fillColor=none;top=0;left=0;bottom=0;right=0;overflow=hidden;labelBackgroundColor=#FFFFFF;fontFamily=Comic Sans MS;fontSize=14;labelBorderColor=none;strokeWidth=2;sketch=1;" parent="c5lcdbn4Do4ufAMMGosH-73" vertex="1">
          <mxGeometry x="208" width="207" height="92" as="geometry" />
        </mxCell>
        <mxCell id="c5lcdbn4Do4ufAMMGosH-75" value="商品库 + 普通创意" style="shape=partialRectangle;html=1;whiteSpace=wrap;connectable=0;fillColor=none;top=0;left=0;bottom=0;right=0;overflow=hidden;labelBackgroundColor=#FFFFFF;fontFamily=Comic Sans MS;fontSize=14;labelBorderColor=none;strokeWidth=2;sketch=1;" parent="c5lcdbn4Do4ufAMMGosH-73" vertex="1">
          <mxGeometry x="415" width="208" height="92" as="geometry" />
        </mxCell>
        <mxCell id="c5lcdbn4Do4ufAMMGosH-76" value="创意+创意附加信息+旭日高级样式 + ......" style="shape=partialRectangle;html=1;whiteSpace=wrap;connectable=0;fillColor=none;top=0;left=0;bottom=0;right=0;overflow=hidden;labelBackgroundColor=#FFFFFF;fontFamily=Comic Sans MS;fontSize=14;labelBorderColor=none;strokeWidth=2;sketch=1;" parent="c5lcdbn4Do4ufAMMGosH-73" vertex="1">
          <mxGeometry x="623" width="207" height="92" as="geometry" />
        </mxCell>
        <mxCell id="c5lcdbn4Do4ufAMMGosH-77" value="" style="shape=partialRectangle;html=1;whiteSpace=wrap;collapsible=0;dropTarget=0;pointerEvents=0;fillColor=none;top=0;left=0;bottom=0;right=0;points=[[0,0.5],[1,0.5]];portConstraint=eastwest;labelBackgroundColor=#FFFFFF;fontFamily=Comic Sans MS;fontSize=14;labelBorderColor=none;strokeWidth=2;sketch=1;" parent="c5lcdbn4Do4ufAMMGosH-68" vertex="1">
          <mxGeometry y="459" width="830" height="91" as="geometry" />
        </mxCell>
        <mxCell id="c5lcdbn4Do4ufAMMGosH-119" value="创意" style="shape=partialRectangle;html=1;whiteSpace=wrap;connectable=0;fillColor=#f8cecc;top=0;left=0;bottom=0;right=0;overflow=hidden;labelBackgroundColor=#FFFFFF;fontFamily=Comic Sans MS;fontSize=14;labelBorderColor=none;strokeWidth=2;strokeColor=#b85450;sketch=1;" parent="c5lcdbn4Do4ufAMMGosH-77" vertex="1">
          <mxGeometry width="208" height="91" as="geometry" />
        </mxCell>
        <mxCell id="c5lcdbn4Do4ufAMMGosH-78" value="创意模板与商品拼接，自动生成" style="shape=partialRectangle;html=1;whiteSpace=wrap;connectable=0;fillColor=none;top=0;left=0;bottom=0;right=0;overflow=hidden;labelBackgroundColor=#FFFFFF;fontFamily=Comic Sans MS;fontSize=14;labelBorderColor=none;strokeWidth=2;sketch=1;" parent="c5lcdbn4Do4ufAMMGosH-77" vertex="1">
          <mxGeometry x="208" width="207" height="91" as="geometry" />
        </mxCell>
        <mxCell id="c5lcdbn4Do4ufAMMGosH-79" value="普通创意与商品拼接，自动生成" style="shape=partialRectangle;html=1;whiteSpace=wrap;connectable=0;fillColor=none;top=0;left=0;bottom=0;right=0;overflow=hidden;labelBackgroundColor=#FFFFFF;fontFamily=Comic Sans MS;fontSize=14;labelBorderColor=none;strokeWidth=2;sketch=1;" parent="c5lcdbn4Do4ufAMMGosH-77" vertex="1">
          <mxGeometry x="415" width="208" height="91" as="geometry" />
        </mxCell>
        <mxCell id="c5lcdbn4Do4ufAMMGosH-80" value="人工填写" style="shape=partialRectangle;html=1;whiteSpace=wrap;connectable=0;fillColor=none;top=0;left=0;bottom=0;right=0;overflow=hidden;labelBackgroundColor=#FFFFFF;fontFamily=Comic Sans MS;fontSize=14;labelBorderColor=none;strokeWidth=2;sketch=1;" parent="c5lcdbn4Do4ufAMMGosH-77" vertex="1">
          <mxGeometry x="623" width="207" height="91" as="geometry" />
        </mxCell>
      </root>
    </mxGraphModel>
  </diagram>
  <diagram id="yLzzA-B-lwIasKqY9VwJ" name="商品库技术架构">
    <mxGraphModel dx="1426" dy="794" grid="1" gridSize="10" guides="1" tooltips="1" connect="1" arrows="1" fold="1" page="1" pageScale="1" pageWidth="1169" pageHeight="827" math="0" shadow="0">
      <root>
        <mxCell id="o0ku_T20AGCFa7XBgWtA-0" />
        <mxCell id="o0ku_T20AGCFa7XBgWtA-1" parent="o0ku_T20AGCFa7XBgWtA-0" />
      </root>
    </mxGraphModel>
  </diagram>
  <diagram id="wIlvZXYx-pt1-9m3hJ8N" name="商品库流程">
    <mxGraphModel dx="1426" dy="794" grid="1" gridSize="10" guides="1" tooltips="1" connect="1" arrows="1" fold="1" page="1" pageScale="1" pageWidth="827" pageHeight="583" math="0" shadow="0">
      <root>
        <mxCell id="VJHMUFfCbgzdDs19GGkj-0" />
        <mxCell id="VJHMUFfCbgzdDs19GGkj-1" parent="VJHMUFfCbgzdDs19GGkj-0" />
        <mxCell id="9uQtR7jI4Cfb5xEqCIpQ-0" value="" style="whiteSpace=wrap;html=1;strokeWidth=2;fillColor=#dae8fc;rounded=1;strokeColor=#6c8ebf;" parent="VJHMUFfCbgzdDs19GGkj-1" vertex="1">
          <mxGeometry x="220" y="760" width="740" height="210" as="geometry" />
        </mxCell>
        <mxCell id="9uQtR7jI4Cfb5xEqCIpQ-3" style="edgeStyle=orthogonalEdgeStyle;rounded=0;orthogonalLoop=1;jettySize=auto;html=1;exitX=0.5;exitY=1;exitDx=0;exitDy=0;entryX=0.5;entryY=0;entryDx=0;entryDy=0;strokeWidth=2;fillColor=#dae8fc;strokeColor=#6c8ebf;" parent="VJHMUFfCbgzdDs19GGkj-1" source="b8AquhWh3Ae3GrexAOa5-25" target="9uQtR7jI4Cfb5xEqCIpQ-0" edge="1">
          <mxGeometry relative="1" as="geometry" />
        </mxCell>
        <mxCell id="b8AquhWh3Ae3GrexAOa5-25" value="" style="whiteSpace=wrap;html=1;strokeWidth=2;fillColor=#dae8fc;rounded=1;strokeColor=#6c8ebf;" parent="VJHMUFfCbgzdDs19GGkj-1" vertex="1">
          <mxGeometry x="220" y="450" width="740" height="280" as="geometry" />
        </mxCell>
        <mxCell id="syXsr3pna4KBL8dzPyY6-16" value="" style="whiteSpace=wrap;html=1;fillColor=#dae8fc;strokeColor=#6c8ebf;strokeWidth=2;rounded=1;" parent="VJHMUFfCbgzdDs19GGkj-1" vertex="1">
          <mxGeometry x="230" y="30" width="741" height="390" as="geometry" />
        </mxCell>
        <mxCell id="syXsr3pna4KBL8dzPyY6-22" value="" style="whiteSpace=wrap;html=1;strokeWidth=2;fillColor=#dae8fc;strokeColor=#6c8ebf;rounded=1;" parent="VJHMUFfCbgzdDs19GGkj-1" vertex="1">
          <mxGeometry x="290" y="60" width="370" height="90" as="geometry" />
        </mxCell>
        <mxCell id="b8AquhWh3Ae3GrexAOa5-16" style="edgeStyle=orthogonalEdgeStyle;orthogonalLoop=1;jettySize=auto;html=1;exitX=0.5;exitY=1;exitDx=0;exitDy=0;entryX=0.855;entryY=-0.033;entryDx=0;entryDy=0;entryPerimeter=0;strokeWidth=2;fillColor=#ffe6cc;strokeColor=#d79b00;" parent="VJHMUFfCbgzdDs19GGkj-1" source="DBCQ0x9Cq8MBXt1jpmIz-2" target="syXsr3pna4KBL8dzPyY6-46" edge="1">
          <mxGeometry relative="1" as="geometry" />
        </mxCell>
        <mxCell id="DBCQ0x9Cq8MBXt1jpmIz-2" value="&lt;font face=&quot;Comic Sans MS&quot; style=&quot;font-size: 14px&quot;&gt;自动对接（XML）&lt;/font&gt;" style="whiteSpace=wrap;html=1;fillColor=#ffe6cc;strokeColor=#d79b00;strokeWidth=2;rounded=1;" parent="VJHMUFfCbgzdDs19GGkj-1" vertex="1">
          <mxGeometry x="540" y="100" width="90" height="40" as="geometry" />
        </mxCell>
        <mxCell id="DBCQ0x9Cq8MBXt1jpmIz-3" value="&lt;font style=&quot;font-size: 18px&quot; face=&quot;Comic Sans MS&quot;&gt;商品库平台&lt;br&gt;（Web）&lt;br&gt;&lt;/font&gt;" style="text;html=1;align=center;verticalAlign=middle;resizable=0;points=[];autosize=1;rounded=1;" parent="VJHMUFfCbgzdDs19GGkj-1" vertex="1">
          <mxGeometry x="110" y="202" width="110" height="40" as="geometry" />
        </mxCell>
        <mxCell id="DBCQ0x9Cq8MBXt1jpmIz-4" value="&lt;font face=&quot;Comic Sans MS&quot; style=&quot;font-size: 18px&quot;&gt;商品存储管理&lt;/font&gt;" style="text;html=1;align=center;verticalAlign=middle;resizable=0;points=[];autosize=1;rounded=1;" parent="VJHMUFfCbgzdDs19GGkj-1" vertex="1">
          <mxGeometry x="100" y="800" width="120" height="20" as="geometry" />
        </mxCell>
        <mxCell id="b8AquhWh3Ae3GrexAOa5-46" style="edgeStyle=orthogonalEdgeStyle;orthogonalLoop=1;jettySize=auto;html=1;exitX=0.452;exitY=0.967;exitDx=0;exitDy=0;strokeWidth=2;exitPerimeter=0;fillColor=#d5e8d4;strokeColor=#82b366;" parent="VJHMUFfCbgzdDs19GGkj-1" source="DBCQ0x9Cq8MBXt1jpmIz-6" edge="1">
          <mxGeometry relative="1" as="geometry">
            <mxPoint x="408" y="366" as="targetPoint" />
            <Array as="points">
              <mxPoint x="408" y="366" />
              <mxPoint x="408" y="366" />
            </Array>
          </mxGeometry>
        </mxCell>
        <mxCell id="DBCQ0x9Cq8MBXt1jpmIz-6" value="&lt;font face=&quot;Comic Sans MS&quot;&gt;&lt;span style=&quot;font-size: 16px&quot;&gt;行业字段规则校验&lt;/span&gt;&lt;/font&gt;" style="whiteSpace=wrap;html=1;strokeWidth=2;fillColor=#d5e8d4;strokeColor=#82b366;rounded=1;" parent="VJHMUFfCbgzdDs19GGkj-1" vertex="1">
          <mxGeometry x="340" y="300" width="152.5" height="30" as="geometry" />
        </mxCell>
        <mxCell id="syXsr3pna4KBL8dzPyY6-10" style="edgeStyle=orthogonalEdgeStyle;orthogonalLoop=1;jettySize=auto;html=1;strokeWidth=2;fillColor=#dae8fc;strokeColor=#6c8ebf;" parent="VJHMUFfCbgzdDs19GGkj-1" target="syXsr3pna4KBL8dzPyY6-5" edge="1">
          <mxGeometry relative="1" as="geometry">
            <Array as="points">
              <mxPoint x="515" y="830" />
              <mxPoint x="698" y="830" />
            </Array>
            <mxPoint x="515" y="833" as="sourcePoint" />
          </mxGeometry>
        </mxCell>
        <mxCell id="9uQtR7jI4Cfb5xEqCIpQ-1" style="edgeStyle=orthogonalEdgeStyle;rounded=0;orthogonalLoop=1;jettySize=auto;html=1;exitX=0.5;exitY=1;exitDx=0;exitDy=0;entryX=0.433;entryY=0;entryDx=0;entryDy=0;entryPerimeter=0;strokeWidth=2;" parent="VJHMUFfCbgzdDs19GGkj-1" source="DBCQ0x9Cq8MBXt1jpmIz-9" target="syXsr3pna4KBL8dzPyY6-4" edge="1">
          <mxGeometry relative="1" as="geometry" />
        </mxCell>
        <mxCell id="9uQtR7jI4Cfb5xEqCIpQ-4" style="edgeStyle=orthogonalEdgeStyle;rounded=0;orthogonalLoop=1;jettySize=auto;html=1;exitX=0.5;exitY=1;exitDx=0;exitDy=0;entryX=0.5;entryY=0;entryDx=0;entryDy=0;strokeWidth=2;fillColor=#e1d5e7;strokeColor=#9673a6;" parent="VJHMUFfCbgzdDs19GGkj-1" source="DBCQ0x9Cq8MBXt1jpmIz-9" target="syXsr3pna4KBL8dzPyY6-3" edge="1">
          <mxGeometry relative="1" as="geometry">
            <Array as="points">
              <mxPoint x="516" y="830" />
              <mxPoint x="321" y="830" />
            </Array>
          </mxGeometry>
        </mxCell>
        <mxCell id="DBCQ0x9Cq8MBXt1jpmIz-9" value="&lt;font face=&quot;Comic Sans MS&quot;&gt;&lt;span style=&quot;font-size: 16px&quot;&gt;DB&lt;/span&gt;&lt;/font&gt;" style="whiteSpace=wrap;html=1;rounded=1;fillColor=#f8cecc;strokeColor=#b85450;" parent="VJHMUFfCbgzdDs19GGkj-1" vertex="1">
          <mxGeometry x="463" y="770" width="105" height="30" as="geometry" />
        </mxCell>
        <mxCell id="syXsr3pna4KBL8dzPyY6-0" value="&lt;font face=&quot;Comic Sans MS&quot; style=&quot;font-size: 18px&quot;&gt;数据分发&lt;/font&gt;" style="text;html=1;align=center;verticalAlign=middle;resizable=0;points=[];autosize=1;rounded=1;" parent="VJHMUFfCbgzdDs19GGkj-1" vertex="1">
          <mxGeometry x="115" y="1040" width="90" height="20" as="geometry" />
        </mxCell>
        <mxCell id="syXsr3pna4KBL8dzPyY6-3" value="&lt;span style=&quot;font-family: &amp;#34;comic sans ms&amp;#34; ; font-size: 18px&quot;&gt;展现Add&lt;/span&gt;" style="whiteSpace=wrap;html=1;rounded=1;fillColor=#e1d5e7;strokeColor=#9673a6;" parent="VJHMUFfCbgzdDs19GGkj-1" vertex="1">
          <mxGeometry x="258" y="1000" width="125" height="45" as="geometry" />
        </mxCell>
        <mxCell id="syXsr3pna4KBL8dzPyY6-11" style="edgeStyle=orthogonalEdgeStyle;orthogonalLoop=1;jettySize=auto;html=1;entryX=1;entryY=0.5;entryDx=0;entryDy=0;exitX=1;exitY=0.5;exitDx=0;exitDy=0;strokeWidth=2;" parent="VJHMUFfCbgzdDs19GGkj-1" source="syXsr3pna4KBL8dzPyY6-4" target="DBCQ0x9Cq8MBXt1jpmIz-9" edge="1">
          <mxGeometry relative="1" as="geometry" />
        </mxCell>
        <mxCell id="syXsr3pna4KBL8dzPyY6-4" value="&lt;font face=&quot;Comic Sans MS&quot;&gt;&lt;span style=&quot;font-size: 18px&quot;&gt;审核Audit&lt;/span&gt;&lt;/font&gt;" style="whiteSpace=wrap;html=1;rounded=1;fillColor=#f8cecc;strokeColor=#b85450;" parent="VJHMUFfCbgzdDs19GGkj-1" vertex="1">
          <mxGeometry x="470" y="875" width="107" height="35" as="geometry" />
        </mxCell>
        <mxCell id="syXsr3pna4KBL8dzPyY6-6" style="edgeStyle=orthogonalEdgeStyle;orthogonalLoop=1;jettySize=auto;html=1;entryX=0.5;entryY=0;entryDx=0;entryDy=0;exitX=0.5;exitY=1;exitDx=0;exitDy=0;fillColor=#e1d5e7;strokeColor=#9673a6;strokeWidth=2;" parent="VJHMUFfCbgzdDs19GGkj-1" source="syXsr3pna4KBL8dzPyY6-3" target="syXsr3pna4KBL8dzPyY6-7" edge="1">
          <mxGeometry relative="1" as="geometry">
            <mxPoint x="745" y="810" as="targetPoint" />
            <mxPoint x="735" y="770" as="sourcePoint" />
          </mxGeometry>
        </mxCell>
        <mxCell id="syXsr3pna4KBL8dzPyY6-14" style="edgeStyle=orthogonalEdgeStyle;orthogonalLoop=1;jettySize=auto;html=1;exitX=1;exitY=0.5;exitDx=0;exitDy=0;entryX=1;entryY=0.5;entryDx=0;entryDy=0;strokeWidth=2;fillColor=#dae8fc;strokeColor=#6c8ebf;" parent="VJHMUFfCbgzdDs19GGkj-1" source="syXsr3pna4KBL8dzPyY6-5" target="syXsr3pna4KBL8dzPyY6-12" edge="1">
          <mxGeometry relative="1" as="geometry">
            <mxPoint x="635" y="160" as="targetPoint" />
            <Array as="points">
              <mxPoint x="1000" y="890" />
              <mxPoint x="1000" y="125" />
            </Array>
          </mxGeometry>
        </mxCell>
        <mxCell id="syXsr3pna4KBL8dzPyY6-5" value="&lt;span style=&quot;font-family: &amp;#34;comic sans ms&amp;#34; ; font-size: 18px&quot;&gt;检索服务solr&lt;/span&gt;" style="whiteSpace=wrap;html=1;rounded=1;fillColor=#dae8fc;strokeColor=#6c8ebf;" parent="VJHMUFfCbgzdDs19GGkj-1" vertex="1">
          <mxGeometry x="635" y="877.5" width="110" height="30" as="geometry" />
        </mxCell>
        <mxCell id="syXsr3pna4KBL8dzPyY6-7" value="&lt;font face=&quot;Comic Sans MS&quot; style=&quot;font-size: 18px&quot;&gt;广告展现&lt;/font&gt;" style="whiteSpace=wrap;html=1;rounded=1;fillColor=#e1d5e7;strokeColor=#9673a6;" parent="VJHMUFfCbgzdDs19GGkj-1" vertex="1">
          <mxGeometry x="263" y="1080" width="115" height="40" as="geometry" />
        </mxCell>
        <mxCell id="syXsr3pna4KBL8dzPyY6-8" value="&lt;font style=&quot;font-size: 15px&quot; face=&quot;Comic Sans MS&quot;&gt;创意组装&lt;/font&gt;" style="text;html=1;align=center;verticalAlign=middle;resizable=0;points=[];autosize=1;rounded=1;" parent="VJHMUFfCbgzdDs19GGkj-1" vertex="1">
          <mxGeometry x="315" y="1060" width="80" height="20" as="geometry" />
        </mxCell>
        <mxCell id="syXsr3pna4KBL8dzPyY6-12" value="&lt;font face=&quot;Comic Sans MS&quot; style=&quot;font-size: 16px&quot;&gt;商品检索功能&lt;/font&gt;" style="whiteSpace=wrap;html=1;fillColor=#dae8fc;strokeColor=#6c8ebf;strokeWidth=2;rounded=1;" parent="VJHMUFfCbgzdDs19GGkj-1" vertex="1">
          <mxGeometry x="740" y="80" width="130" height="90" as="geometry" />
        </mxCell>
        <mxCell id="syXsr3pna4KBL8dzPyY6-15" value="&lt;font style=&quot;font-size: 18px&quot; face=&quot;Comic Sans MS&quot;&gt;解析引擎&lt;br&gt;(Crawler)&lt;br&gt;&lt;/font&gt;" style="text;html=1;align=center;verticalAlign=middle;resizable=0;points=[];autosize=1;rounded=1;" parent="VJHMUFfCbgzdDs19GGkj-1" vertex="1">
          <mxGeometry x="130" y="543" width="90" height="40" as="geometry" />
        </mxCell>
        <mxCell id="b8AquhWh3Ae3GrexAOa5-17" style="edgeStyle=orthogonalEdgeStyle;orthogonalLoop=1;jettySize=auto;html=1;exitX=0.5;exitY=1;exitDx=0;exitDy=0;entryX=0.528;entryY=0.033;entryDx=0;entryDy=0;entryPerimeter=0;strokeWidth=2;fillColor=#d5e8d4;strokeColor=#82b366;" parent="VJHMUFfCbgzdDs19GGkj-1" source="syXsr3pna4KBL8dzPyY6-20" target="syXsr3pna4KBL8dzPyY6-46" edge="1">
          <mxGeometry relative="1" as="geometry" />
        </mxCell>
        <mxCell id="syXsr3pna4KBL8dzPyY6-20" value="&lt;font face=&quot;Comic Sans MS&quot; style=&quot;font-size: 14px&quot;&gt;手动上传（Excel）&lt;/font&gt;" style="whiteSpace=wrap;html=1;fillColor=#d5e8d4;strokeColor=#82b366;strokeWidth=2;rounded=1;" parent="VJHMUFfCbgzdDs19GGkj-1" vertex="1">
          <mxGeometry x="425" y="100" width="95" height="40" as="geometry" />
        </mxCell>
        <mxCell id="b8AquhWh3Ae3GrexAOa5-18" style="edgeStyle=orthogonalEdgeStyle;orthogonalLoop=1;jettySize=auto;html=1;exitX=0.5;exitY=1;exitDx=0;exitDy=0;strokeWidth=2;fillColor=#d5e8d4;strokeColor=#82b366;entryX=0.197;entryY=0;entryDx=0;entryDy=0;entryPerimeter=0;" parent="VJHMUFfCbgzdDs19GGkj-1" source="syXsr3pna4KBL8dzPyY6-21" target="syXsr3pna4KBL8dzPyY6-46" edge="1">
          <mxGeometry relative="1" as="geometry">
            <mxPoint x="358" y="220" as="targetPoint" />
          </mxGeometry>
        </mxCell>
        <mxCell id="syXsr3pna4KBL8dzPyY6-21" value="&lt;font face=&quot;Comic Sans MS&quot; style=&quot;font-size: 14px&quot;&gt;在线填写&lt;/font&gt;" style="whiteSpace=wrap;html=1;fillColor=#d5e8d4;strokeColor=#82b366;strokeWidth=2;rounded=1;" parent="VJHMUFfCbgzdDs19GGkj-1" vertex="1">
          <mxGeometry x="315" y="100" width="85" height="40" as="geometry" />
        </mxCell>
        <mxCell id="syXsr3pna4KBL8dzPyY6-23" value="&lt;font face=&quot;Comic Sans MS&quot; style=&quot;font-size: 16px&quot; color=&quot;#030303&quot;&gt;数据对接功能&lt;/font&gt;" style="text;html=1;strokeColor=none;fillColor=none;align=center;verticalAlign=middle;whiteSpace=wrap;rounded=1;" parent="VJHMUFfCbgzdDs19GGkj-1" vertex="1">
          <mxGeometry x="310" y="70" width="100" height="20" as="geometry" />
        </mxCell>
        <mxCell id="b8AquhWh3Ae3GrexAOa5-37" style="edgeStyle=orthogonalEdgeStyle;orthogonalLoop=1;jettySize=auto;html=1;exitX=0.5;exitY=1;exitDx=0;exitDy=0;entryX=0.5;entryY=0;entryDx=0;entryDy=0;strokeWidth=2;fillColor=#ffe6cc;strokeColor=#d79b00;" parent="VJHMUFfCbgzdDs19GGkj-1" source="syXsr3pna4KBL8dzPyY6-38" target="syXsr3pna4KBL8dzPyY6-42" edge="1">
          <mxGeometry relative="1" as="geometry" />
        </mxCell>
        <mxCell id="syXsr3pna4KBL8dzPyY6-38" value="&lt;font style=&quot;font-size: 14px&quot; face=&quot;Comic Sans MS&quot;&gt;数据诊断&lt;/font&gt;" style="whiteSpace=wrap;html=1;strokeWidth=2;fillColor=#ffe6cc;strokeColor=#d79b00;rounded=1;" parent="VJHMUFfCbgzdDs19GGkj-1" vertex="1">
          <mxGeometry x="542.5" y="262" width="85" height="30" as="geometry" />
        </mxCell>
        <mxCell id="b8AquhWh3Ae3GrexAOa5-38" style="edgeStyle=orthogonalEdgeStyle;orthogonalLoop=1;jettySize=auto;html=1;exitX=0.5;exitY=1;exitDx=0;exitDy=0;entryX=0.843;entryY=0;entryDx=0;entryDy=0;entryPerimeter=0;strokeWidth=2;fillColor=#ffe6cc;strokeColor=#d79b00;" parent="VJHMUFfCbgzdDs19GGkj-1" source="syXsr3pna4KBL8dzPyY6-42" target="b8AquhWh3Ae3GrexAOa5-1" edge="1">
          <mxGeometry relative="1" as="geometry" />
        </mxCell>
        <mxCell id="syXsr3pna4KBL8dzPyY6-42" value="&lt;font style=&quot;font-size: 14px&quot; face=&quot;Comic Sans MS&quot;&gt;数据修正&lt;/font&gt;" style="whiteSpace=wrap;html=1;perimeterSpacing=1;strokeWidth=2;fillColor=#ffe6cc;strokeColor=#d79b00;rounded=1;" parent="VJHMUFfCbgzdDs19GGkj-1" vertex="1">
          <mxGeometry x="542.5" y="320" width="85" height="30" as="geometry" />
        </mxCell>
        <mxCell id="b8AquhWh3Ae3GrexAOa5-26" style="edgeStyle=orthogonalEdgeStyle;orthogonalLoop=1;jettySize=auto;html=1;exitX=0.5;exitY=1;exitDx=0;exitDy=0;entryX=0.5;entryY=0;entryDx=0;entryDy=0;strokeWidth=2;fillColor=#ffe6cc;strokeColor=#d79b00;" parent="VJHMUFfCbgzdDs19GGkj-1" source="syXsr3pna4KBL8dzPyY6-43" target="syXsr3pna4KBL8dzPyY6-63" edge="1">
          <mxGeometry relative="1" as="geometry" />
        </mxCell>
        <mxCell id="syXsr3pna4KBL8dzPyY6-43" value="&lt;font style=&quot;font-size: 14px&quot; face=&quot;Comic Sans MS&quot;&gt;文件抓取&lt;/font&gt;" style="whiteSpace=wrap;html=1;strokeWidth=2;fillColor=#ffe6cc;strokeColor=#d79b00;rounded=1;" parent="VJHMUFfCbgzdDs19GGkj-1" vertex="1">
          <mxGeometry x="542.5" y="460" width="85" height="30" as="geometry" />
        </mxCell>
        <mxCell id="b8AquhWh3Ae3GrexAOa5-34" style="edgeStyle=orthogonalEdgeStyle;orthogonalLoop=1;jettySize=auto;html=1;exitX=0.5;exitY=1;exitDx=0;exitDy=0;entryX=0.5;entryY=0;entryDx=0;entryDy=0;strokeWidth=2;fillColor=#ffe6cc;strokeColor=#d79b00;" parent="VJHMUFfCbgzdDs19GGkj-1" source="syXsr3pna4KBL8dzPyY6-44" target="syXsr3pna4KBL8dzPyY6-45" edge="1">
          <mxGeometry relative="1" as="geometry" />
        </mxCell>
        <mxCell id="syXsr3pna4KBL8dzPyY6-44" value="&lt;font style=&quot;font-size: 14px&quot; face=&quot;Comic Sans MS&quot;&gt;XML解析&lt;/font&gt;" style="whiteSpace=wrap;html=1;strokeWidth=2;fillColor=#ffe6cc;strokeColor=#d79b00;rounded=1;" parent="VJHMUFfCbgzdDs19GGkj-1" vertex="1">
          <mxGeometry x="455" y="578" width="80" height="30" as="geometry" />
        </mxCell>
        <mxCell id="b8AquhWh3Ae3GrexAOa5-35" style="edgeStyle=orthogonalEdgeStyle;orthogonalLoop=1;jettySize=auto;html=1;exitX=0.5;exitY=1;exitDx=0;exitDy=0;entryX=0.5;entryY=0;entryDx=0;entryDy=0;strokeWidth=2;fillColor=#ffe6cc;strokeColor=#d79b00;" parent="VJHMUFfCbgzdDs19GGkj-1" source="syXsr3pna4KBL8dzPyY6-45" target="syXsr3pna4KBL8dzPyY6-67" edge="1">
          <mxGeometry relative="1" as="geometry" />
        </mxCell>
        <mxCell id="syXsr3pna4KBL8dzPyY6-45" value="&lt;font face=&quot;Comic Sans MS&quot;&gt;&lt;span style=&quot;font-size: 14px&quot;&gt;规则转换&lt;/span&gt;&lt;/font&gt;" style="whiteSpace=wrap;html=1;strokeWidth=2;fillColor=#ffe6cc;strokeColor=#d79b00;rounded=1;" parent="VJHMUFfCbgzdDs19GGkj-1" vertex="1">
          <mxGeometry x="455" y="628" width="80" height="30" as="geometry" />
        </mxCell>
        <mxCell id="b8AquhWh3Ae3GrexAOa5-20" style="edgeStyle=orthogonalEdgeStyle;orthogonalLoop=1;jettySize=auto;html=1;exitX=0.525;exitY=1;exitDx=0;exitDy=0;strokeWidth=2;exitPerimeter=0;fillColor=#d5e8d4;strokeColor=#82b366;" parent="VJHMUFfCbgzdDs19GGkj-1" source="syXsr3pna4KBL8dzPyY6-46" edge="1">
          <mxGeometry relative="1" as="geometry">
            <mxPoint x="410" y="298" as="targetPoint" />
            <Array as="points">
              <mxPoint x="471" y="260" />
              <mxPoint x="410" y="260" />
            </Array>
          </mxGeometry>
        </mxCell>
        <mxCell id="b8AquhWh3Ae3GrexAOa5-22" style="edgeStyle=orthogonalEdgeStyle;orthogonalLoop=1;jettySize=auto;html=1;exitX=0.194;exitY=1.1;exitDx=0;exitDy=0;strokeWidth=2;exitPerimeter=0;fillColor=#d5e8d4;strokeColor=#82b366;" parent="VJHMUFfCbgzdDs19GGkj-1" source="syXsr3pna4KBL8dzPyY6-46" edge="1">
          <mxGeometry relative="1" as="geometry">
            <mxPoint x="410" y="300" as="targetPoint" />
            <Array as="points">
              <mxPoint x="357" y="261" />
              <mxPoint x="410" y="261" />
            </Array>
          </mxGeometry>
        </mxCell>
        <mxCell id="b8AquhWh3Ae3GrexAOa5-39" style="edgeStyle=orthogonalEdgeStyle;orthogonalLoop=1;jettySize=auto;html=1;exitX=0.852;exitY=1.1;exitDx=0;exitDy=0;entryX=0.5;entryY=0;entryDx=0;entryDy=0;strokeWidth=2;exitPerimeter=0;fillColor=#ffe6cc;strokeColor=#d79b00;" parent="VJHMUFfCbgzdDs19GGkj-1" source="syXsr3pna4KBL8dzPyY6-46" target="syXsr3pna4KBL8dzPyY6-38" edge="1">
          <mxGeometry relative="1" as="geometry">
            <Array as="points">
              <mxPoint x="585" y="225" />
            </Array>
          </mxGeometry>
        </mxCell>
        <mxCell id="syXsr3pna4KBL8dzPyY6-46" value="&lt;font style=&quot;font-size: 14px&quot; face=&quot;Comic Sans MS&quot;&gt;常规检验&lt;/font&gt;" style="whiteSpace=wrap;html=1;fillColor=#dae8fc;strokeColor=#6c8ebf;strokeWidth=2;rounded=1;" parent="VJHMUFfCbgzdDs19GGkj-1" vertex="1">
          <mxGeometry x="290" y="192" width="345" height="30" as="geometry" />
        </mxCell>
        <mxCell id="syXsr3pna4KBL8dzPyY6-2" value="&lt;font face=&quot;Comic Sans MS&quot; style=&quot;font-size: 16px&quot;&gt;dts-sku&lt;/font&gt;" style="text;html=1;align=center;verticalAlign=middle;resizable=0;points=[];autosize=1;rounded=1;" parent="VJHMUFfCbgzdDs19GGkj-1" vertex="1">
          <mxGeometry x="513" y="845" width="70" height="20" as="geometry" />
        </mxCell>
        <mxCell id="syXsr3pna4KBL8dzPyY6-56" value="&lt;font face=&quot;Comic Sans MS&quot; style=&quot;font-size: 13px&quot;&gt;binlog 报文&lt;br&gt;（全量、增量）&lt;br&gt;&lt;/font&gt;" style="text;html=1;align=center;verticalAlign=middle;resizable=0;points=[];autosize=1;rounded=1;" parent="VJHMUFfCbgzdDs19GGkj-1" vertex="1">
          <mxGeometry x="361.25" y="835" width="110" height="40" as="geometry" />
        </mxCell>
        <mxCell id="b8AquhWh3Ae3GrexAOa5-30" style="edgeStyle=orthogonalEdgeStyle;orthogonalLoop=1;jettySize=auto;html=1;exitX=0.5;exitY=1;exitDx=0;exitDy=0;entryX=0.5;entryY=0;entryDx=0;entryDy=0;strokeWidth=2;fillColor=#ffe6cc;strokeColor=#d79b00;" parent="VJHMUFfCbgzdDs19GGkj-1" source="syXsr3pna4KBL8dzPyY6-61" target="syXsr3pna4KBL8dzPyY6-65" edge="1">
          <mxGeometry relative="1" as="geometry" />
        </mxCell>
        <mxCell id="syXsr3pna4KBL8dzPyY6-61" value="&lt;font style=&quot;font-size: 14px&quot; face=&quot;Comic Sans MS&quot;&gt;XML解析&lt;/font&gt;" style="whiteSpace=wrap;html=1;strokeWidth=2;fillColor=#ffe6cc;strokeColor=#d79b00;rounded=1;" parent="VJHMUFfCbgzdDs19GGkj-1" vertex="1">
          <mxGeometry x="545" y="578" width="80" height="30" as="geometry" />
        </mxCell>
        <mxCell id="b8AquhWh3Ae3GrexAOa5-31" style="edgeStyle=orthogonalEdgeStyle;orthogonalLoop=1;jettySize=auto;html=1;exitX=0.5;exitY=1;exitDx=0;exitDy=0;entryX=0.5;entryY=0;entryDx=0;entryDy=0;strokeWidth=2;fillColor=#ffe6cc;strokeColor=#d79b00;" parent="VJHMUFfCbgzdDs19GGkj-1" source="syXsr3pna4KBL8dzPyY6-62" target="syXsr3pna4KBL8dzPyY6-66" edge="1">
          <mxGeometry relative="1" as="geometry" />
        </mxCell>
        <mxCell id="syXsr3pna4KBL8dzPyY6-62" value="&lt;font style=&quot;font-size: 14px&quot; face=&quot;Comic Sans MS&quot;&gt;XML解析&lt;/font&gt;" style="whiteSpace=wrap;html=1;strokeWidth=2;fillColor=#ffe6cc;strokeColor=#d79b00;rounded=1;" parent="VJHMUFfCbgzdDs19GGkj-1" vertex="1">
          <mxGeometry x="635" y="578" width="80" height="30" as="geometry" />
        </mxCell>
        <mxCell id="b8AquhWh3Ae3GrexAOa5-27" style="edgeStyle=orthogonalEdgeStyle;orthogonalLoop=1;jettySize=auto;html=1;exitX=0.5;exitY=1;exitDx=0;exitDy=0;entryX=0.5;entryY=0;entryDx=0;entryDy=0;strokeWidth=2;fillColor=#ffe6cc;strokeColor=#d79b00;" parent="VJHMUFfCbgzdDs19GGkj-1" source="syXsr3pna4KBL8dzPyY6-63" target="syXsr3pna4KBL8dzPyY6-61" edge="1">
          <mxGeometry relative="1" as="geometry" />
        </mxCell>
        <mxCell id="b8AquhWh3Ae3GrexAOa5-28" style="edgeStyle=orthogonalEdgeStyle;orthogonalLoop=1;jettySize=auto;html=1;exitX=0.5;exitY=1;exitDx=0;exitDy=0;entryX=0.5;entryY=0;entryDx=0;entryDy=0;strokeWidth=2;fillColor=#ffe6cc;strokeColor=#d79b00;" parent="VJHMUFfCbgzdDs19GGkj-1" source="syXsr3pna4KBL8dzPyY6-63" target="syXsr3pna4KBL8dzPyY6-44" edge="1">
          <mxGeometry relative="1" as="geometry">
            <Array as="points">
              <mxPoint x="585.5" y="563" />
              <mxPoint x="495.5" y="563" />
            </Array>
          </mxGeometry>
        </mxCell>
        <mxCell id="b8AquhWh3Ae3GrexAOa5-29" style="edgeStyle=orthogonalEdgeStyle;orthogonalLoop=1;jettySize=auto;html=1;exitX=0.5;exitY=1;exitDx=0;exitDy=0;entryX=0.5;entryY=0;entryDx=0;entryDy=0;strokeWidth=2;fillColor=#ffe6cc;strokeColor=#d79b00;" parent="VJHMUFfCbgzdDs19GGkj-1" source="syXsr3pna4KBL8dzPyY6-63" target="syXsr3pna4KBL8dzPyY6-62" edge="1">
          <mxGeometry relative="1" as="geometry">
            <Array as="points">
              <mxPoint x="585.5" y="563" />
              <mxPoint x="675.5" y="563" />
            </Array>
          </mxGeometry>
        </mxCell>
        <mxCell id="syXsr3pna4KBL8dzPyY6-63" value="&lt;font style=&quot;font-size: 14px&quot; face=&quot;Comic Sans MS&quot;&gt;组装sitemap&lt;/font&gt;" style="whiteSpace=wrap;html=1;strokeWidth=2;fillColor=#ffe6cc;strokeColor=#d79b00;rounded=1;" parent="VJHMUFfCbgzdDs19GGkj-1" vertex="1">
          <mxGeometry x="542.5" y="513" width="85" height="30" as="geometry" />
        </mxCell>
        <mxCell id="b8AquhWh3Ae3GrexAOa5-33" style="edgeStyle=orthogonalEdgeStyle;orthogonalLoop=1;jettySize=auto;html=1;exitX=0.5;exitY=1;exitDx=0;exitDy=0;entryX=0.5;entryY=0;entryDx=0;entryDy=0;strokeWidth=2;fillColor=#ffe6cc;strokeColor=#d79b00;" parent="VJHMUFfCbgzdDs19GGkj-1" source="syXsr3pna4KBL8dzPyY6-65" target="syXsr3pna4KBL8dzPyY6-68" edge="1">
          <mxGeometry relative="1" as="geometry" />
        </mxCell>
        <mxCell id="syXsr3pna4KBL8dzPyY6-65" value="&lt;font face=&quot;Comic Sans MS&quot;&gt;&lt;span style=&quot;font-size: 14px&quot;&gt;规则转换&lt;/span&gt;&lt;/font&gt;" style="whiteSpace=wrap;html=1;strokeWidth=2;fillColor=#ffe6cc;strokeColor=#d79b00;rounded=1;" parent="VJHMUFfCbgzdDs19GGkj-1" vertex="1">
          <mxGeometry x="545" y="628" width="80" height="30" as="geometry" />
        </mxCell>
        <mxCell id="b8AquhWh3Ae3GrexAOa5-32" style="edgeStyle=orthogonalEdgeStyle;orthogonalLoop=1;jettySize=auto;html=1;exitX=0.5;exitY=1;exitDx=0;exitDy=0;entryX=0.5;entryY=0;entryDx=0;entryDy=0;strokeWidth=2;fillColor=#ffe6cc;strokeColor=#d79b00;" parent="VJHMUFfCbgzdDs19GGkj-1" source="syXsr3pna4KBL8dzPyY6-66" target="syXsr3pna4KBL8dzPyY6-69" edge="1">
          <mxGeometry relative="1" as="geometry" />
        </mxCell>
        <mxCell id="syXsr3pna4KBL8dzPyY6-66" value="&lt;font face=&quot;Comic Sans MS&quot;&gt;&lt;span style=&quot;font-size: 14px&quot;&gt;规则转换&lt;/span&gt;&lt;/font&gt;" style="whiteSpace=wrap;html=1;strokeWidth=2;fillColor=#ffe6cc;strokeColor=#d79b00;rounded=1;" parent="VJHMUFfCbgzdDs19GGkj-1" vertex="1">
          <mxGeometry x="635" y="628" width="80" height="30" as="geometry" />
        </mxCell>
        <mxCell id="syXsr3pna4KBL8dzPyY6-67" value="&lt;font face=&quot;Comic Sans MS&quot;&gt;&lt;span style=&quot;font-size: 14px&quot;&gt;数据检验&lt;/span&gt;&lt;/font&gt;" style="whiteSpace=wrap;html=1;strokeWidth=2;fillColor=#ffe6cc;strokeColor=#d79b00;rounded=1;" parent="VJHMUFfCbgzdDs19GGkj-1" vertex="1">
          <mxGeometry x="455" y="678" width="80" height="30" as="geometry" />
        </mxCell>
        <mxCell id="syXsr3pna4KBL8dzPyY6-68" value="&lt;font face=&quot;Comic Sans MS&quot;&gt;&lt;span style=&quot;font-size: 14px&quot;&gt;数据校验&lt;/span&gt;&lt;/font&gt;" style="whiteSpace=wrap;html=1;strokeWidth=2;fillColor=#ffe6cc;strokeColor=#d79b00;rounded=1;" parent="VJHMUFfCbgzdDs19GGkj-1" vertex="1">
          <mxGeometry x="545" y="678" width="80" height="30" as="geometry" />
        </mxCell>
        <mxCell id="syXsr3pna4KBL8dzPyY6-69" value="&lt;font face=&quot;Comic Sans MS&quot;&gt;&lt;span style=&quot;font-size: 14px&quot;&gt;数据校验&lt;/span&gt;&lt;/font&gt;" style="whiteSpace=wrap;html=1;strokeWidth=2;fillColor=#ffe6cc;strokeColor=#d79b00;rounded=1;" parent="VJHMUFfCbgzdDs19GGkj-1" vertex="1">
          <mxGeometry x="635" y="678" width="80" height="30" as="geometry" />
        </mxCell>
        <mxCell id="b8AquhWh3Ae3GrexAOa5-0" value="&lt;font face=&quot;Comic Sans MS&quot; style=&quot;font-size: 15px&quot;&gt;deleteSku&lt;/font&gt;" style="whiteSpace=wrap;html=1;strokeWidth=2;fillColor=#d5e8d4;strokeColor=#82b366;rounded=1;" parent="VJHMUFfCbgzdDs19GGkj-1" vertex="1">
          <mxGeometry x="300" y="540" width="105" height="47" as="geometry" />
        </mxCell>
        <mxCell id="bup7R44Sp_XLsLXoLLYa-0" style="edgeStyle=orthogonalEdgeStyle;rounded=0;orthogonalLoop=1;jettySize=auto;html=1;exitX=0.177;exitY=1;exitDx=0;exitDy=0;entryX=0.5;entryY=0;entryDx=0;entryDy=0;exitPerimeter=0;strokeWidth=2;fillColor=#d5e8d4;strokeColor=#82b366;" parent="VJHMUFfCbgzdDs19GGkj-1" source="b8AquhWh3Ae3GrexAOa5-1" target="b8AquhWh3Ae3GrexAOa5-0" edge="1">
          <mxGeometry relative="1" as="geometry" />
        </mxCell>
        <mxCell id="bup7R44Sp_XLsLXoLLYa-2" style="edgeStyle=orthogonalEdgeStyle;rounded=0;orthogonalLoop=1;jettySize=auto;html=1;exitX=0.843;exitY=1.1;exitDx=0;exitDy=0;entryX=0.5;entryY=0;entryDx=0;entryDy=0;strokeWidth=2;fillColor=#ffe6cc;strokeColor=#d79b00;exitPerimeter=0;" parent="VJHMUFfCbgzdDs19GGkj-1" source="b8AquhWh3Ae3GrexAOa5-1" target="syXsr3pna4KBL8dzPyY6-43" edge="1">
          <mxGeometry relative="1" as="geometry">
            <Array as="points" />
          </mxGeometry>
        </mxCell>
        <mxCell id="b8AquhWh3Ae3GrexAOa5-1" value="&lt;font face=&quot;Comic Sans MS&quot; style=&quot;font-size: 14px&quot;&gt;createFeed&lt;/font&gt;" style="whiteSpace=wrap;html=1;strokeWidth=2;fillColor=#dae8fc;strokeColor=#6c8ebf;rounded=1;" parent="VJHMUFfCbgzdDs19GGkj-1" vertex="1">
          <mxGeometry x="290" y="370" width="350" height="30" as="geometry" />
        </mxCell>
        <mxCell id="b8AquhWh3Ae3GrexAOa5-4" value="&lt;font face=&quot;Comic Sans MS&quot; style=&quot;font-size: 15px&quot;&gt;CrawlerTask&lt;/font&gt;" style="text;html=1;strokeColor=none;fillColor=none;align=center;verticalAlign=middle;whiteSpace=wrap;rounded=1;" parent="VJHMUFfCbgzdDs19GGkj-1" vertex="1">
          <mxGeometry x="810" y="450" width="110" height="40" as="geometry" />
        </mxCell>
        <mxCell id="b8AquhWh3Ae3GrexAOa5-5" value="&lt;font style=&quot;font-size: 15px&quot; face=&quot;Comic Sans MS&quot;&gt;deleteSku&lt;/font&gt;" style="whiteSpace=wrap;html=1;strokeWidth=2;fillColor=#ffe6cc;strokeColor=#d79b00;rounded=1;" parent="VJHMUFfCbgzdDs19GGkj-1" vertex="1">
          <mxGeometry x="790" y="678" width="100" height="40" as="geometry" />
        </mxCell>
        <mxCell id="b8AquhWh3Ae3GrexAOa5-23" value="&lt;font style=&quot;font-size: 14px&quot; face=&quot;Comic Sans MS&quot;&gt;DataProcessor&lt;/font&gt;" style="text;html=1;align=center;verticalAlign=middle;resizable=0;points=[];autosize=1;rounded=1;" parent="VJHMUFfCbgzdDs19GGkj-1" vertex="1">
          <mxGeometry x="235" y="305" width="110" height="20" as="geometry" />
        </mxCell>
        <mxCell id="b8AquhWh3Ae3GrexAOa5-24" value="&lt;font face=&quot;Comic Sans MS&quot; style=&quot;font-size: 15px&quot;&gt;Diff&lt;/font&gt;" style="whiteSpace=wrap;html=1;strokeWidth=2;fillColor=#ffe6cc;strokeColor=#d79b00;rounded=1;" parent="VJHMUFfCbgzdDs19GGkj-1" vertex="1">
          <mxGeometry x="790" y="618" width="100" height="40" as="geometry" />
        </mxCell>
        <mxCell id="b8AquhWh3Ae3GrexAOa5-44" value="&lt;span style=&quot;font-family: &amp;#34;comic sans ms&amp;#34; ; font-size: 14px&quot;&gt;EasyExcel&lt;/span&gt;" style="text;html=1;align=center;verticalAlign=middle;resizable=0;points=[];autosize=1;rounded=1;" parent="VJHMUFfCbgzdDs19GGkj-1" vertex="1">
          <mxGeometry x="410" y="262" width="80" height="20" as="geometry" />
        </mxCell>
      </root>
    </mxGraphModel>
  </diagram>
  <diagram id="230Z7tGWoCfuLAIFF9OB" name="mercahnt-crawler">
    <mxGraphModel dx="1826" dy="794" grid="1" gridSize="10" guides="1" tooltips="1" connect="1" arrows="1" fold="1" page="0" pageScale="1" pageWidth="1169" pageHeight="827" background="none" math="0" shadow="0">
      <root>
        <mxCell id="ejFeKrvux11KH-gLDIxC-0" />
        <mxCell id="ejFeKrvux11KH-gLDIxC-1" parent="ejFeKrvux11KH-gLDIxC-0" />
        <mxCell id="XHREzLJAS4Kx0iPs4Fbu-9" style="edgeStyle=orthogonalEdgeStyle;orthogonalLoop=1;jettySize=auto;html=1;exitX=0.5;exitY=1;exitDx=0;exitDy=0;labelBackgroundColor=#F4F1DE;strokeColor=#E07A5F;fontColor=#393C56;curved=1;" parent="ejFeKrvux11KH-gLDIxC-1" source="ejFeKrvux11KH-gLDIxC-2" target="ejFeKrvux11KH-gLDIxC-5" edge="1">
          <mxGeometry relative="1" as="geometry" />
        </mxCell>
        <mxCell id="ejFeKrvux11KH-gLDIxC-2" value="&lt;span style=&quot;font-family: &amp;#34;comic sans ms&amp;#34; ; font-size: 15px&quot;&gt;CrawlerJob&lt;/span&gt;" style="whiteSpace=wrap;html=1;fillColor=#F2CC8F;strokeColor=#E07A5F;fontColor=#393C56;" parent="ejFeKrvux11KH-gLDIxC-1" vertex="1">
          <mxGeometry x="-10" y="20" width="160" height="40" as="geometry" />
        </mxCell>
        <mxCell id="XHREzLJAS4Kx0iPs4Fbu-22" style="edgeStyle=orthogonalEdgeStyle;orthogonalLoop=1;jettySize=auto;html=1;exitX=0.5;exitY=1;exitDx=0;exitDy=0;entryX=0.5;entryY=0;entryDx=0;entryDy=0;labelBackgroundColor=#F4F1DE;strokeColor=#E07A5F;fontColor=#393C56;curved=1;" parent="ejFeKrvux11KH-gLDIxC-1" source="ejFeKrvux11KH-gLDIxC-5" target="ejFeKrvux11KH-gLDIxC-12" edge="1">
          <mxGeometry relative="1" as="geometry" />
        </mxCell>
        <mxCell id="ejFeKrvux11KH-gLDIxC-5" value="&lt;font face=&quot;comic sans ms&quot;&gt;&lt;span style=&quot;font-size: 15px&quot;&gt;feed&lt;br&gt;&lt;/span&gt;&lt;/font&gt;&lt;span style=&quot;font-family: &amp;#34;comic sans ms&amp;#34; ; font-size: 15px&quot;&gt;skuConvertRule&lt;/span&gt;&lt;font face=&quot;comic sans ms&quot;&gt;&lt;span style=&quot;font-size: 15px&quot;&gt;&lt;br&gt;&lt;/span&gt;&lt;/font&gt;" style="whiteSpace=wrap;html=1;fillColor=#F2CC8F;strokeColor=#E07A5F;fontColor=#393C56;" parent="ejFeKrvux11KH-gLDIxC-1" vertex="1">
          <mxGeometry x="-10" y="90" width="160" height="40" as="geometry" />
        </mxCell>
        <mxCell id="ejFeKrvux11KH-gLDIxC-7" value="&lt;font face=&quot;Comic Sans MS&quot;&gt;pull feedDto&lt;/font&gt;" style="text;html=1;align=center;verticalAlign=middle;resizable=0;points=[];autosize=1;strokeColor=none;fontColor=#393C56;" parent="ejFeKrvux11KH-gLDIxC-1" vertex="1">
          <mxGeometry x="70" y="70" width="90" height="20" as="geometry" />
        </mxCell>
        <mxCell id="XHREzLJAS4Kx0iPs4Fbu-24" style="edgeStyle=orthogonalEdgeStyle;orthogonalLoop=1;jettySize=auto;html=1;exitX=0.5;exitY=1;exitDx=0;exitDy=0;entryX=0.5;entryY=0;entryDx=0;entryDy=0;labelBackgroundColor=#F4F1DE;strokeColor=#E07A5F;fontColor=#393C56;curved=1;" parent="ejFeKrvux11KH-gLDIxC-1" source="ejFeKrvux11KH-gLDIxC-11" target="ejFeKrvux11KH-gLDIxC-17" edge="1">
          <mxGeometry relative="1" as="geometry" />
        </mxCell>
        <mxCell id="ejFeKrvux11KH-gLDIxC-11" value="&lt;font style=&quot;font-size: 15px&quot; face=&quot;Comic Sans MS&quot;&gt;crawlTask&lt;/font&gt;" style="whiteSpace=wrap;html=1;fillColor=#F2CC8F;strokeColor=#E07A5F;fontColor=#393C56;" parent="ejFeKrvux11KH-gLDIxC-1" vertex="1">
          <mxGeometry x="-10" y="210" width="160" height="40" as="geometry" />
        </mxCell>
        <mxCell id="XHREzLJAS4Kx0iPs4Fbu-23" style="edgeStyle=orthogonalEdgeStyle;orthogonalLoop=1;jettySize=auto;html=1;exitX=0.5;exitY=1;exitDx=0;exitDy=0;entryX=0.5;entryY=0;entryDx=0;entryDy=0;labelBackgroundColor=#F4F1DE;strokeColor=#E07A5F;fontColor=#393C56;curved=1;" parent="ejFeKrvux11KH-gLDIxC-1" source="ejFeKrvux11KH-gLDIxC-12" target="ejFeKrvux11KH-gLDIxC-11" edge="1">
          <mxGeometry relative="1" as="geometry" />
        </mxCell>
        <mxCell id="ejFeKrvux11KH-gLDIxC-12" value="&lt;font style=&quot;font-size: 15px&quot; face=&quot;Comic Sans MS&quot;&gt;check&lt;br&gt;（参数、状态、时间）&lt;/font&gt;" style="whiteSpace=wrap;html=1;fillColor=#F2CC8F;strokeColor=#E07A5F;fontColor=#393C56;" parent="ejFeKrvux11KH-gLDIxC-1" vertex="1">
          <mxGeometry x="-10" y="150" width="160" height="40" as="geometry" />
        </mxCell>
        <mxCell id="XHREzLJAS4Kx0iPs4Fbu-25" style="edgeStyle=orthogonalEdgeStyle;orthogonalLoop=1;jettySize=auto;html=1;exitX=0.5;exitY=1;exitDx=0;exitDy=0;entryX=0.5;entryY=0;entryDx=0;entryDy=0;labelBackgroundColor=#F4F1DE;strokeColor=#E07A5F;fontColor=#393C56;curved=1;" parent="ejFeKrvux11KH-gLDIxC-1" source="ejFeKrvux11KH-gLDIxC-17" target="ejFeKrvux11KH-gLDIxC-18" edge="1">
          <mxGeometry relative="1" as="geometry" />
        </mxCell>
        <mxCell id="ejFeKrvux11KH-gLDIxC-17" value="&lt;font face=&quot;Comic Sans MS&quot;&gt;&lt;span style=&quot;font-size: 15px&quot;&gt;url 地址预处理（解密）&lt;/span&gt;&lt;/font&gt;" style="whiteSpace=wrap;html=1;fillColor=#F2CC8F;strokeColor=#E07A5F;fontColor=#393C56;" parent="ejFeKrvux11KH-gLDIxC-1" vertex="1">
          <mxGeometry x="-10" y="270" width="160" height="40" as="geometry" />
        </mxCell>
        <mxCell id="XHREzLJAS4Kx0iPs4Fbu-26" style="edgeStyle=orthogonalEdgeStyle;orthogonalLoop=1;jettySize=auto;html=1;exitX=0.5;exitY=1;exitDx=0;exitDy=0;entryX=0.5;entryY=0;entryDx=0;entryDy=0;labelBackgroundColor=#F4F1DE;strokeColor=#E07A5F;fontColor=#393C56;curved=1;" parent="ejFeKrvux11KH-gLDIxC-1" source="ejFeKrvux11KH-gLDIxC-18" target="ejFeKrvux11KH-gLDIxC-20" edge="1">
          <mxGeometry relative="1" as="geometry" />
        </mxCell>
        <mxCell id="ejFeKrvux11KH-gLDIxC-18" value="&lt;font face=&quot;Comic Sans MS&quot;&gt;&lt;span style=&quot;font-size: 15px&quot;&gt;获取schema&lt;/span&gt;&lt;/font&gt;" style="whiteSpace=wrap;html=1;fillColor=#F2CC8F;strokeColor=#E07A5F;fontColor=#393C56;" parent="ejFeKrvux11KH-gLDIxC-1" vertex="1">
          <mxGeometry x="-10" y="330" width="160" height="40" as="geometry" />
        </mxCell>
        <mxCell id="XHREzLJAS4Kx0iPs4Fbu-27" style="edgeStyle=orthogonalEdgeStyle;orthogonalLoop=1;jettySize=auto;html=1;exitX=0.5;exitY=1;exitDx=0;exitDy=0;entryX=0.5;entryY=0;entryDx=0;entryDy=0;labelBackgroundColor=#F4F1DE;strokeColor=#E07A5F;fontColor=#393C56;curved=1;" parent="ejFeKrvux11KH-gLDIxC-1" source="ejFeKrvux11KH-gLDIxC-20" target="ejFeKrvux11KH-gLDIxC-21" edge="1">
          <mxGeometry relative="1" as="geometry" />
        </mxCell>
        <mxCell id="ejFeKrvux11KH-gLDIxC-20" value="&lt;font face=&quot;Comic Sans MS&quot;&gt;&lt;span style=&quot;font-size: 15px&quot;&gt;抓取xml（落盘）&lt;/span&gt;&lt;/font&gt;" style="whiteSpace=wrap;html=1;fillColor=#F2CC8F;strokeColor=#E07A5F;fontColor=#393C56;" parent="ejFeKrvux11KH-gLDIxC-1" vertex="1">
          <mxGeometry x="-10" y="390" width="160" height="40" as="geometry" />
        </mxCell>
        <mxCell id="XHREzLJAS4Kx0iPs4Fbu-28" style="edgeStyle=orthogonalEdgeStyle;orthogonalLoop=1;jettySize=auto;html=1;exitX=0.5;exitY=1;exitDx=0;exitDy=0;entryX=0.5;entryY=0;entryDx=0;entryDy=0;labelBackgroundColor=#F4F1DE;strokeColor=#E07A5F;fontColor=#393C56;curved=1;" parent="ejFeKrvux11KH-gLDIxC-1" source="ejFeKrvux11KH-gLDIxC-21" target="ejFeKrvux11KH-gLDIxC-23" edge="1">
          <mxGeometry relative="1" as="geometry" />
        </mxCell>
        <mxCell id="ejFeKrvux11KH-gLDIxC-21" value="&lt;font face=&quot;Comic Sans MS&quot;&gt;&lt;span style=&quot;font-size: 15px&quot;&gt;组装stemap&lt;/span&gt;&lt;/font&gt;" style="whiteSpace=wrap;html=1;fillColor=#F2CC8F;strokeColor=#E07A5F;fontColor=#393C56;" parent="ejFeKrvux11KH-gLDIxC-1" vertex="1">
          <mxGeometry x="-10" y="450" width="160" height="40" as="geometry" />
        </mxCell>
        <mxCell id="ejFeKrvux11KH-gLDIxC-23" value="&lt;font face=&quot;Comic Sans MS&quot;&gt;&lt;span style=&quot;font-size: 15px&quot;&gt;SubSiteMapProcess&lt;/span&gt;&lt;/font&gt;" style="whiteSpace=wrap;html=1;fillColor=#F2CC8F;strokeColor=#E07A5F;fontColor=#393C56;" parent="ejFeKrvux11KH-gLDIxC-1" vertex="1">
          <mxGeometry x="-10" y="510" width="160" height="40" as="geometry" />
        </mxCell>
        <mxCell id="XHREzLJAS4Kx0iPs4Fbu-43" style="edgeStyle=orthogonalEdgeStyle;orthogonalLoop=1;jettySize=auto;html=1;exitX=1;exitY=0.5;exitDx=0;exitDy=0;entryX=0;entryY=0.5;entryDx=0;entryDy=0;labelBackgroundColor=#F4F1DE;strokeColor=#E07A5F;fontColor=#393C56;curved=1;" parent="ejFeKrvux11KH-gLDIxC-1" source="HZCyAkcgF9kj8hvN9qaY-5" target="HZCyAkcgF9kj8hvN9qaY-18" edge="1">
          <mxGeometry relative="1" as="geometry" />
        </mxCell>
        <mxCell id="HZCyAkcgF9kj8hvN9qaY-5" value="&lt;font face=&quot;Comic Sans MS&quot;&gt;&lt;span style=&quot;font-size: 14px&quot;&gt;规则转换&lt;/span&gt;&lt;/font&gt;" style="whiteSpace=wrap;html=1;strokeWidth=2;fillColor=#F2CC8F;strokeColor=#E07A5F;direction=east;fontColor=#393C56;" parent="ejFeKrvux11KH-gLDIxC-1" vertex="1">
          <mxGeometry x="600" y="460" width="80" height="30" as="geometry" />
        </mxCell>
        <mxCell id="XHREzLJAS4Kx0iPs4Fbu-51" style="edgeStyle=none;orthogonalLoop=1;jettySize=auto;html=1;exitX=1;exitY=0.5;exitDx=0;exitDy=0;entryX=0;entryY=0.5;entryDx=0;entryDy=0;labelBackgroundColor=#F4F1DE;strokeColor=#E07A5F;fontColor=#393C56;curved=1;" parent="ejFeKrvux11KH-gLDIxC-1" source="HZCyAkcgF9kj8hvN9qaY-15" target="HZCyAkcgF9kj8hvN9qaY-19" edge="1">
          <mxGeometry relative="1" as="geometry" />
        </mxCell>
        <mxCell id="HZCyAkcgF9kj8hvN9qaY-15" value="&lt;font face=&quot;Comic Sans MS&quot;&gt;&lt;span style=&quot;font-size: 14px&quot;&gt;规则转换&lt;/span&gt;&lt;/font&gt;" style="whiteSpace=wrap;html=1;strokeWidth=2;fillColor=#F2CC8F;strokeColor=#E07A5F;direction=east;fontColor=#393C56;" parent="ejFeKrvux11KH-gLDIxC-1" vertex="1">
          <mxGeometry x="600" y="520" width="80" height="30" as="geometry" />
        </mxCell>
        <mxCell id="XHREzLJAS4Kx0iPs4Fbu-50" style="edgeStyle=none;orthogonalLoop=1;jettySize=auto;html=1;exitX=1;exitY=0.5;exitDx=0;exitDy=0;entryX=0;entryY=0.5;entryDx=0;entryDy=0;labelBackgroundColor=#F4F1DE;strokeColor=#E07A5F;fontColor=#393C56;curved=1;" parent="ejFeKrvux11KH-gLDIxC-1" source="HZCyAkcgF9kj8hvN9qaY-17" target="HZCyAkcgF9kj8hvN9qaY-20" edge="1">
          <mxGeometry relative="1" as="geometry" />
        </mxCell>
        <mxCell id="HZCyAkcgF9kj8hvN9qaY-17" value="&lt;font face=&quot;Comic Sans MS&quot;&gt;&lt;span style=&quot;font-size: 14px&quot;&gt;规则转换&lt;/span&gt;&lt;/font&gt;" style="whiteSpace=wrap;html=1;strokeWidth=2;fillColor=#F2CC8F;strokeColor=#E07A5F;direction=east;fontColor=#393C56;" parent="ejFeKrvux11KH-gLDIxC-1" vertex="1">
          <mxGeometry x="600" y="585" width="80" height="30" as="geometry" />
        </mxCell>
        <mxCell id="XHREzLJAS4Kx0iPs4Fbu-11" style="edgeStyle=orthogonalEdgeStyle;orthogonalLoop=1;jettySize=auto;html=1;exitX=1;exitY=0.5;exitDx=0;exitDy=0;entryX=0;entryY=0.5;entryDx=0;entryDy=0;labelBackgroundColor=#F4F1DE;strokeColor=#E07A5F;fontColor=#393C56;curved=1;" parent="ejFeKrvux11KH-gLDIxC-1" source="HZCyAkcgF9kj8hvN9qaY-18" target="KH147xV1CtQnG2iCD21X-7" edge="1">
          <mxGeometry relative="1" as="geometry" />
        </mxCell>
        <mxCell id="HZCyAkcgF9kj8hvN9qaY-18" value="&lt;font face=&quot;Comic Sans MS&quot;&gt;&lt;span style=&quot;font-size: 14px&quot;&gt;数据检验&lt;/span&gt;&lt;/font&gt;" style="whiteSpace=wrap;html=1;strokeWidth=2;fillColor=#F2CC8F;strokeColor=#E07A5F;direction=east;fontColor=#393C56;" parent="ejFeKrvux11KH-gLDIxC-1" vertex="1">
          <mxGeometry x="700" y="460" width="80" height="30" as="geometry" />
        </mxCell>
        <mxCell id="XHREzLJAS4Kx0iPs4Fbu-18" style="edgeStyle=orthogonalEdgeStyle;orthogonalLoop=1;jettySize=auto;html=1;exitX=1;exitY=0.5;exitDx=0;exitDy=0;entryX=0;entryY=0.5;entryDx=0;entryDy=0;labelBackgroundColor=#F4F1DE;strokeColor=#E07A5F;fontColor=#393C56;curved=1;" parent="ejFeKrvux11KH-gLDIxC-1" source="HZCyAkcgF9kj8hvN9qaY-19" target="XHREzLJAS4Kx0iPs4Fbu-6" edge="1">
          <mxGeometry relative="1" as="geometry" />
        </mxCell>
        <mxCell id="HZCyAkcgF9kj8hvN9qaY-19" value="&lt;font face=&quot;Comic Sans MS&quot;&gt;&lt;span style=&quot;font-size: 14px&quot;&gt;数据校验&lt;/span&gt;&lt;/font&gt;" style="whiteSpace=wrap;html=1;strokeWidth=2;fillColor=#F2CC8F;strokeColor=#E07A5F;direction=east;fontColor=#393C56;" parent="ejFeKrvux11KH-gLDIxC-1" vertex="1">
          <mxGeometry x="700" y="520" width="80" height="30" as="geometry" />
        </mxCell>
        <mxCell id="XHREzLJAS4Kx0iPs4Fbu-20" style="edgeStyle=orthogonalEdgeStyle;orthogonalLoop=1;jettySize=auto;html=1;exitX=1;exitY=0.5;exitDx=0;exitDy=0;entryX=0;entryY=0.5;entryDx=0;entryDy=0;labelBackgroundColor=#F4F1DE;strokeColor=#E07A5F;fontColor=#393C56;curved=1;" parent="ejFeKrvux11KH-gLDIxC-1" source="HZCyAkcgF9kj8hvN9qaY-20" target="XHREzLJAS4Kx0iPs4Fbu-7" edge="1">
          <mxGeometry relative="1" as="geometry" />
        </mxCell>
        <mxCell id="HZCyAkcgF9kj8hvN9qaY-20" value="&lt;font face=&quot;Comic Sans MS&quot;&gt;&lt;span style=&quot;font-size: 14px&quot;&gt;数据校验&lt;/span&gt;&lt;/font&gt;" style="whiteSpace=wrap;html=1;strokeWidth=2;fillColor=#F2CC8F;strokeColor=#E07A5F;direction=east;fontColor=#393C56;" parent="ejFeKrvux11KH-gLDIxC-1" vertex="1">
          <mxGeometry x="700" y="585" width="80" height="30" as="geometry" />
        </mxCell>
        <mxCell id="XHREzLJAS4Kx0iPs4Fbu-39" style="edgeStyle=orthogonalEdgeStyle;orthogonalLoop=1;jettySize=auto;html=1;exitX=1;exitY=0.5;exitDx=0;exitDy=0;entryX=0;entryY=0.5;entryDx=0;entryDy=0;labelBackgroundColor=#F4F1DE;strokeColor=#E07A5F;fontColor=#393C56;curved=1;" parent="ejFeKrvux11KH-gLDIxC-1" source="HZCyAkcgF9kj8hvN9qaY-24" target="HZCyAkcgF9kj8hvN9qaY-28" edge="1">
          <mxGeometry relative="1" as="geometry" />
        </mxCell>
        <mxCell id="HZCyAkcgF9kj8hvN9qaY-24" value="&lt;font face=&quot;Comic Sans MS&quot;&gt;&lt;span style=&quot;font-size: 14px&quot;&gt;lastmod&lt;br&gt;检验&lt;/span&gt;&lt;/font&gt;" style="whiteSpace=wrap;html=1;strokeWidth=2;fillColor=#F2CC8F;strokeColor=#E07A5F;direction=east;fontColor=#393C56;" parent="ejFeKrvux11KH-gLDIxC-1" vertex="1">
          <mxGeometry x="200" y="460" width="80" height="30" as="geometry" />
        </mxCell>
        <mxCell id="XHREzLJAS4Kx0iPs4Fbu-58" style="edgeStyle=none;orthogonalLoop=1;jettySize=auto;html=1;exitX=1;exitY=0.5;exitDx=0;exitDy=0;entryX=0;entryY=0.5;entryDx=0;entryDy=0;labelBackgroundColor=#F4F1DE;strokeColor=#E07A5F;fontColor=#393C56;curved=1;" parent="ejFeKrvux11KH-gLDIxC-1" source="HZCyAkcgF9kj8hvN9qaY-25" target="HZCyAkcgF9kj8hvN9qaY-29" edge="1">
          <mxGeometry relative="1" as="geometry" />
        </mxCell>
        <mxCell id="HZCyAkcgF9kj8hvN9qaY-25" value="&lt;font face=&quot;Comic Sans MS&quot;&gt;&lt;span style=&quot;font-size: 14px&quot;&gt;lastmod&lt;br&gt;校验&lt;/span&gt;&lt;/font&gt;" style="whiteSpace=wrap;html=1;strokeWidth=2;fillColor=#F2CC8F;strokeColor=#E07A5F;direction=east;fontColor=#393C56;" parent="ejFeKrvux11KH-gLDIxC-1" vertex="1">
          <mxGeometry x="200" y="520" width="80" height="30" as="geometry" />
        </mxCell>
        <mxCell id="XHREzLJAS4Kx0iPs4Fbu-59" style="edgeStyle=none;orthogonalLoop=1;jettySize=auto;html=1;exitX=1;exitY=0.5;exitDx=0;exitDy=0;entryX=0;entryY=0.5;entryDx=0;entryDy=0;labelBackgroundColor=#F4F1DE;strokeColor=#E07A5F;fontColor=#393C56;curved=1;" parent="ejFeKrvux11KH-gLDIxC-1" source="HZCyAkcgF9kj8hvN9qaY-26" target="HZCyAkcgF9kj8hvN9qaY-30" edge="1">
          <mxGeometry relative="1" as="geometry" />
        </mxCell>
        <mxCell id="HZCyAkcgF9kj8hvN9qaY-26" value="&lt;font face=&quot;Comic Sans MS&quot;&gt;&lt;span style=&quot;font-size: 14px&quot;&gt;lastmod&lt;br&gt;校验&lt;/span&gt;&lt;/font&gt;" style="whiteSpace=wrap;html=1;strokeWidth=2;fillColor=#F2CC8F;strokeColor=#E07A5F;direction=east;fontColor=#393C56;" parent="ejFeKrvux11KH-gLDIxC-1" vertex="1">
          <mxGeometry x="200" y="585" width="80" height="30" as="geometry" />
        </mxCell>
        <mxCell id="XHREzLJAS4Kx0iPs4Fbu-40" style="edgeStyle=orthogonalEdgeStyle;orthogonalLoop=1;jettySize=auto;html=1;exitX=1;exitY=0.5;exitDx=0;exitDy=0;entryX=0;entryY=0.5;entryDx=0;entryDy=0;labelBackgroundColor=#F4F1DE;strokeColor=#E07A5F;fontColor=#393C56;curved=1;" parent="ejFeKrvux11KH-gLDIxC-1" source="HZCyAkcgF9kj8hvN9qaY-28" target="HZCyAkcgF9kj8hvN9qaY-31" edge="1">
          <mxGeometry relative="1" as="geometry" />
        </mxCell>
        <mxCell id="HZCyAkcgF9kj8hvN9qaY-28" value="&lt;font face=&quot;Comic Sans MS&quot;&gt;&lt;span style=&quot;font-size: 14px&quot;&gt;create sitemap&lt;/span&gt;&lt;/font&gt;" style="whiteSpace=wrap;html=1;strokeWidth=2;fillColor=#F2CC8F;strokeColor=#E07A5F;direction=east;fontColor=#393C56;" parent="ejFeKrvux11KH-gLDIxC-1" vertex="1">
          <mxGeometry x="300" y="460" width="80" height="30" as="geometry" />
        </mxCell>
        <mxCell id="XHREzLJAS4Kx0iPs4Fbu-56" style="edgeStyle=none;orthogonalLoop=1;jettySize=auto;html=1;exitX=1;exitY=0.5;exitDx=0;exitDy=0;entryX=0;entryY=0.5;entryDx=0;entryDy=0;labelBackgroundColor=#F4F1DE;strokeColor=#E07A5F;fontColor=#393C56;curved=1;" parent="ejFeKrvux11KH-gLDIxC-1" source="HZCyAkcgF9kj8hvN9qaY-29" target="HZCyAkcgF9kj8hvN9qaY-32" edge="1">
          <mxGeometry relative="1" as="geometry" />
        </mxCell>
        <mxCell id="HZCyAkcgF9kj8hvN9qaY-29" value="&lt;span style=&quot;font-family: &amp;#34;comic sans ms&amp;#34; ; font-size: 14px&quot;&gt;create sitemap&lt;/span&gt;" style="whiteSpace=wrap;html=1;strokeWidth=2;fillColor=#F2CC8F;strokeColor=#E07A5F;direction=east;fontColor=#393C56;" parent="ejFeKrvux11KH-gLDIxC-1" vertex="1">
          <mxGeometry x="300" y="520" width="80" height="30" as="geometry" />
        </mxCell>
        <mxCell id="XHREzLJAS4Kx0iPs4Fbu-57" style="edgeStyle=none;orthogonalLoop=1;jettySize=auto;html=1;exitX=1;exitY=0.5;exitDx=0;exitDy=0;entryX=0;entryY=0.5;entryDx=0;entryDy=0;labelBackgroundColor=#F4F1DE;strokeColor=#E07A5F;fontColor=#393C56;curved=1;" parent="ejFeKrvux11KH-gLDIxC-1" source="HZCyAkcgF9kj8hvN9qaY-30" target="HZCyAkcgF9kj8hvN9qaY-33" edge="1">
          <mxGeometry relative="1" as="geometry" />
        </mxCell>
        <mxCell id="HZCyAkcgF9kj8hvN9qaY-30" value="&lt;span style=&quot;font-family: &amp;#34;comic sans ms&amp;#34; ; font-size: 14px&quot;&gt;create sitemap&lt;/span&gt;" style="whiteSpace=wrap;html=1;strokeWidth=2;fillColor=#F2CC8F;strokeColor=#E07A5F;direction=east;fontColor=#393C56;" parent="ejFeKrvux11KH-gLDIxC-1" vertex="1">
          <mxGeometry x="300" y="585" width="80" height="30" as="geometry" />
        </mxCell>
        <mxCell id="XHREzLJAS4Kx0iPs4Fbu-41" style="edgeStyle=orthogonalEdgeStyle;orthogonalLoop=1;jettySize=auto;html=1;exitX=1;exitY=0.5;exitDx=0;exitDy=0;entryX=0;entryY=0.5;entryDx=0;entryDy=0;labelBackgroundColor=#F4F1DE;strokeColor=#E07A5F;fontColor=#393C56;curved=1;" parent="ejFeKrvux11KH-gLDIxC-1" source="HZCyAkcgF9kj8hvN9qaY-31" target="HZCyAkcgF9kj8hvN9qaY-34" edge="1">
          <mxGeometry relative="1" as="geometry" />
        </mxCell>
        <mxCell id="HZCyAkcgF9kj8hvN9qaY-31" value="&lt;font face=&quot;Comic Sans MS&quot;&gt;&lt;span style=&quot;font-size: 14px&quot;&gt;抓取 subxml&lt;/span&gt;&lt;/font&gt;" style="whiteSpace=wrap;html=1;strokeWidth=2;fillColor=#F2CC8F;strokeColor=#E07A5F;direction=east;fontColor=#393C56;" parent="ejFeKrvux11KH-gLDIxC-1" vertex="1">
          <mxGeometry x="400" y="460" width="80" height="30" as="geometry" />
        </mxCell>
        <mxCell id="XHREzLJAS4Kx0iPs4Fbu-55" style="edgeStyle=none;orthogonalLoop=1;jettySize=auto;html=1;exitX=1;exitY=0.5;exitDx=0;exitDy=0;entryX=0;entryY=0.5;entryDx=0;entryDy=0;labelBackgroundColor=#F4F1DE;strokeColor=#E07A5F;fontColor=#393C56;curved=1;" parent="ejFeKrvux11KH-gLDIxC-1" source="HZCyAkcgF9kj8hvN9qaY-32" target="HZCyAkcgF9kj8hvN9qaY-35" edge="1">
          <mxGeometry relative="1" as="geometry" />
        </mxCell>
        <mxCell id="HZCyAkcgF9kj8hvN9qaY-32" value="&lt;span style=&quot;font-family: &amp;#34;comic sans ms&amp;#34; ; font-size: 14px&quot;&gt;抓取 subxml&lt;/span&gt;" style="whiteSpace=wrap;html=1;strokeWidth=2;fillColor=#F2CC8F;strokeColor=#E07A5F;direction=east;fontColor=#393C56;" parent="ejFeKrvux11KH-gLDIxC-1" vertex="1">
          <mxGeometry x="400" y="520" width="80" height="30" as="geometry" />
        </mxCell>
        <mxCell id="XHREzLJAS4Kx0iPs4Fbu-54" style="edgeStyle=none;orthogonalLoop=1;jettySize=auto;html=1;exitX=1;exitY=0.5;exitDx=0;exitDy=0;entryX=0;entryY=0.5;entryDx=0;entryDy=0;labelBackgroundColor=#F4F1DE;strokeColor=#E07A5F;fontColor=#393C56;curved=1;" parent="ejFeKrvux11KH-gLDIxC-1" source="HZCyAkcgF9kj8hvN9qaY-33" target="HZCyAkcgF9kj8hvN9qaY-36" edge="1">
          <mxGeometry relative="1" as="geometry" />
        </mxCell>
        <mxCell id="HZCyAkcgF9kj8hvN9qaY-33" value="&lt;span style=&quot;font-family: &amp;#34;comic sans ms&amp;#34; ; font-size: 14px&quot;&gt;抓取 subxml&lt;/span&gt;" style="whiteSpace=wrap;html=1;strokeWidth=2;fillColor=#F2CC8F;strokeColor=#E07A5F;direction=east;fontColor=#393C56;" parent="ejFeKrvux11KH-gLDIxC-1" vertex="1">
          <mxGeometry x="400" y="585" width="80" height="30" as="geometry" />
        </mxCell>
        <mxCell id="XHREzLJAS4Kx0iPs4Fbu-42" style="edgeStyle=orthogonalEdgeStyle;orthogonalLoop=1;jettySize=auto;html=1;exitX=1;exitY=0.5;exitDx=0;exitDy=0;entryX=0;entryY=0.5;entryDx=0;entryDy=0;labelBackgroundColor=#F4F1DE;strokeColor=#E07A5F;fontColor=#393C56;curved=1;" parent="ejFeKrvux11KH-gLDIxC-1" source="HZCyAkcgF9kj8hvN9qaY-34" target="HZCyAkcgF9kj8hvN9qaY-5" edge="1">
          <mxGeometry relative="1" as="geometry" />
        </mxCell>
        <mxCell id="HZCyAkcgF9kj8hvN9qaY-34" value="&lt;font face=&quot;Comic Sans MS&quot;&gt;&lt;span style=&quot;font-size: 14px&quot;&gt;解析 subxml&lt;/span&gt;&lt;/font&gt;" style="whiteSpace=wrap;html=1;strokeWidth=2;fillColor=#F2CC8F;strokeColor=#E07A5F;direction=east;fontColor=#393C56;" parent="ejFeKrvux11KH-gLDIxC-1" vertex="1">
          <mxGeometry x="500" y="460" width="80" height="30" as="geometry" />
        </mxCell>
        <mxCell id="XHREzLJAS4Kx0iPs4Fbu-52" style="edgeStyle=none;orthogonalLoop=1;jettySize=auto;html=1;exitX=1;exitY=0.5;exitDx=0;exitDy=0;entryX=0;entryY=0.5;entryDx=0;entryDy=0;labelBackgroundColor=#F4F1DE;strokeColor=#E07A5F;fontColor=#393C56;curved=1;" parent="ejFeKrvux11KH-gLDIxC-1" source="HZCyAkcgF9kj8hvN9qaY-35" target="HZCyAkcgF9kj8hvN9qaY-15" edge="1">
          <mxGeometry relative="1" as="geometry" />
        </mxCell>
        <mxCell id="HZCyAkcgF9kj8hvN9qaY-35" value="&lt;span style=&quot;font-family: &amp;#34;comic sans ms&amp;#34; ; font-size: 14px&quot;&gt;解析 subxml&lt;/span&gt;" style="whiteSpace=wrap;html=1;strokeWidth=2;fillColor=#F2CC8F;strokeColor=#E07A5F;direction=east;fontColor=#393C56;" parent="ejFeKrvux11KH-gLDIxC-1" vertex="1">
          <mxGeometry x="500" y="520" width="80" height="30" as="geometry" />
        </mxCell>
        <mxCell id="XHREzLJAS4Kx0iPs4Fbu-53" style="edgeStyle=none;orthogonalLoop=1;jettySize=auto;html=1;exitX=1;exitY=0.5;exitDx=0;exitDy=0;entryX=0;entryY=0.5;entryDx=0;entryDy=0;labelBackgroundColor=#F4F1DE;strokeColor=#E07A5F;fontColor=#393C56;curved=1;" parent="ejFeKrvux11KH-gLDIxC-1" source="HZCyAkcgF9kj8hvN9qaY-36" target="HZCyAkcgF9kj8hvN9qaY-17" edge="1">
          <mxGeometry relative="1" as="geometry" />
        </mxCell>
        <mxCell id="HZCyAkcgF9kj8hvN9qaY-36" value="&lt;span style=&quot;font-family: &amp;#34;comic sans ms&amp;#34; ; font-size: 14px&quot;&gt;解析 subxml&lt;/span&gt;" style="whiteSpace=wrap;html=1;strokeWidth=2;fillColor=#F2CC8F;strokeColor=#E07A5F;direction=east;fontColor=#393C56;" parent="ejFeKrvux11KH-gLDIxC-1" vertex="1">
          <mxGeometry x="500" y="585" width="80" height="30" as="geometry" />
        </mxCell>
        <mxCell id="KH147xV1CtQnG2iCD21X-3" value="&lt;font face=&quot;Comic Sans MS&quot;&gt;&lt;span style=&quot;font-size: 14px&quot;&gt;入库&lt;/span&gt;&lt;/font&gt;" style="whiteSpace=wrap;html=1;strokeWidth=2;fillColor=#F2CC8F;strokeColor=#E07A5F;direction=east;fontColor=#393C56;" parent="ejFeKrvux11KH-gLDIxC-1" vertex="1">
          <mxGeometry x="1000" y="460" width="80" height="30" as="geometry" />
        </mxCell>
        <mxCell id="KH147xV1CtQnG2iCD21X-4" value="&lt;span style=&quot;font-family: &amp;#34;comic sans ms&amp;#34; ; font-size: 14px&quot;&gt;入库&lt;/span&gt;" style="whiteSpace=wrap;html=1;strokeWidth=2;fillColor=#F2CC8F;strokeColor=#E07A5F;direction=east;fontColor=#393C56;" parent="ejFeKrvux11KH-gLDIxC-1" vertex="1">
          <mxGeometry x="1000" y="520" width="80" height="30" as="geometry" />
        </mxCell>
        <mxCell id="KH147xV1CtQnG2iCD21X-5" value="&lt;span style=&quot;font-family: &amp;#34;comic sans ms&amp;#34; ; font-size: 14px&quot;&gt;入库&lt;/span&gt;" style="whiteSpace=wrap;html=1;strokeWidth=2;fillColor=#F2CC8F;strokeColor=#E07A5F;direction=east;fontColor=#393C56;" parent="ejFeKrvux11KH-gLDIxC-1" vertex="1">
          <mxGeometry x="1000" y="585" width="80" height="30" as="geometry" />
        </mxCell>
        <mxCell id="XHREzLJAS4Kx0iPs4Fbu-12" style="edgeStyle=orthogonalEdgeStyle;orthogonalLoop=1;jettySize=auto;html=1;exitX=1;exitY=0.5;exitDx=0;exitDy=0;entryX=0;entryY=0.5;entryDx=0;entryDy=0;labelBackgroundColor=#F4F1DE;strokeColor=#E07A5F;fontColor=#393C56;curved=1;" parent="ejFeKrvux11KH-gLDIxC-1" source="KH147xV1CtQnG2iCD21X-7" target="KH147xV1CtQnG2iCD21X-9" edge="1">
          <mxGeometry relative="1" as="geometry" />
        </mxCell>
        <mxCell id="XHREzLJAS4Kx0iPs4Fbu-13" value="Y" style="edgeLabel;html=1;align=center;verticalAlign=middle;resizable=0;points=[];labelBackgroundColor=#F4F1DE;fontColor=#393C56;" parent="XHREzLJAS4Kx0iPs4Fbu-12" vertex="1" connectable="0">
          <mxGeometry x="-0.3333" y="2" relative="1" as="geometry">
            <mxPoint as="offset" />
          </mxGeometry>
        </mxCell>
        <mxCell id="XHREzLJAS4Kx0iPs4Fbu-17" style="edgeStyle=orthogonalEdgeStyle;orthogonalLoop=1;jettySize=auto;html=1;exitX=0.5;exitY=0;exitDx=0;exitDy=0;entryX=0.5;entryY=1;entryDx=0;entryDy=0;labelBackgroundColor=#F4F1DE;strokeColor=#E07A5F;fontColor=#393C56;curved=1;" parent="ejFeKrvux11KH-gLDIxC-1" source="KH147xV1CtQnG2iCD21X-7" target="KH147xV1CtQnG2iCD21X-11" edge="1">
          <mxGeometry relative="1" as="geometry" />
        </mxCell>
        <mxCell id="KH147xV1CtQnG2iCD21X-7" value="add ?" style="rhombus;whiteSpace=wrap;html=1;direction=east;fillColor=#F2CC8F;strokeColor=#E07A5F;fontColor=#393C56;" parent="ejFeKrvux11KH-gLDIxC-1" vertex="1">
          <mxGeometry x="810" y="457.5" width="50" height="35" as="geometry" />
        </mxCell>
        <mxCell id="XHREzLJAS4Kx0iPs4Fbu-47" style="orthogonalLoop=1;jettySize=auto;html=1;exitX=1;exitY=0.5;exitDx=0;exitDy=0;entryX=0;entryY=0.5;entryDx=0;entryDy=0;labelBackgroundColor=#F4F1DE;strokeColor=#E07A5F;fontColor=#393C56;curved=1;" parent="ejFeKrvux11KH-gLDIxC-1" source="KH147xV1CtQnG2iCD21X-9" target="KH147xV1CtQnG2iCD21X-3" edge="1">
          <mxGeometry relative="1" as="geometry" />
        </mxCell>
        <mxCell id="KH147xV1CtQnG2iCD21X-9" value="&lt;font face=&quot;Comic Sans MS&quot;&gt;&lt;span style=&quot;font-size: 14px&quot;&gt;文字预审&lt;/span&gt;&lt;/font&gt;" style="whiteSpace=wrap;html=1;strokeWidth=2;fillColor=#F2CC8F;strokeColor=#E07A5F;direction=east;fontColor=#393C56;" parent="ejFeKrvux11KH-gLDIxC-1" vertex="1">
          <mxGeometry x="890" y="460" width="80" height="30" as="geometry" />
        </mxCell>
        <mxCell id="XHREzLJAS4Kx0iPs4Fbu-14" style="edgeStyle=orthogonalEdgeStyle;orthogonalLoop=1;jettySize=auto;html=1;exitX=1;exitY=0.5;exitDx=0;exitDy=0;entryX=0;entryY=0.5;entryDx=0;entryDy=0;labelBackgroundColor=#F4F1DE;strokeColor=#E07A5F;fontColor=#393C56;curved=1;" parent="ejFeKrvux11KH-gLDIxC-1" source="KH147xV1CtQnG2iCD21X-11" target="KH147xV1CtQnG2iCD21X-13" edge="1">
          <mxGeometry relative="1" as="geometry" />
        </mxCell>
        <mxCell id="KH147xV1CtQnG2iCD21X-11" value="&lt;font face=&quot;Comic Sans MS&quot;&gt;&lt;span style=&quot;font-size: 14px&quot;&gt;md5 对比&lt;/span&gt;&lt;/font&gt;" style="whiteSpace=wrap;html=1;strokeWidth=2;fillColor=#F2CC8F;strokeColor=#E07A5F;direction=east;fontColor=#393C56;" parent="ejFeKrvux11KH-gLDIxC-1" vertex="1">
          <mxGeometry x="795" y="402.5" width="80" height="30" as="geometry" />
        </mxCell>
        <mxCell id="XHREzLJAS4Kx0iPs4Fbu-8" value="Y" style="edgeStyle=orthogonalEdgeStyle;orthogonalLoop=1;jettySize=auto;html=1;exitX=0.5;exitY=1;exitDx=0;exitDy=0;entryX=0.5;entryY=0;entryDx=0;entryDy=0;labelBackgroundColor=#F4F1DE;strokeColor=#E07A5F;fontColor=#393C56;curved=1;" parent="ejFeKrvux11KH-gLDIxC-1" source="KH147xV1CtQnG2iCD21X-13" target="KH147xV1CtQnG2iCD21X-9" edge="1">
          <mxGeometry relative="1" as="geometry" />
        </mxCell>
        <mxCell id="KH147xV1CtQnG2iCD21X-13" value="!=" style="rhombus;whiteSpace=wrap;html=1;direction=east;fillColor=#F2CC8F;strokeColor=#E07A5F;fontColor=#393C56;" parent="ejFeKrvux11KH-gLDIxC-1" vertex="1">
          <mxGeometry x="910" y="400" width="40" height="35" as="geometry" />
        </mxCell>
        <mxCell id="XHREzLJAS4Kx0iPs4Fbu-60" style="edgeStyle=none;orthogonalLoop=1;jettySize=auto;html=1;exitX=0.5;exitY=0;exitDx=0;exitDy=0;entryX=0.5;entryY=1;entryDx=0;entryDy=0;labelBackgroundColor=#F4F1DE;strokeColor=#E07A5F;fontColor=#393C56;curved=1;" parent="ejFeKrvux11KH-gLDIxC-1" source="KH147xV1CtQnG2iCD21X-19" target="KH147xV1CtQnG2iCD21X-20" edge="1">
          <mxGeometry relative="1" as="geometry" />
        </mxCell>
        <mxCell id="KH147xV1CtQnG2iCD21X-19" value="&lt;font face=&quot;Comic Sans MS&quot;&gt;&lt;span style=&quot;font-size: 15px&quot;&gt;统计错误信息&lt;/span&gt;&lt;/font&gt;" style="whiteSpace=wrap;html=1;fillColor=#F2CC8F;strokeColor=#E07A5F;fontColor=#393C56;" parent="ejFeKrvux11KH-gLDIxC-1" vertex="1">
          <mxGeometry x="1130" y="512.5" width="160" height="40" as="geometry" />
        </mxCell>
        <mxCell id="XHREzLJAS4Kx0iPs4Fbu-61" style="edgeStyle=none;orthogonalLoop=1;jettySize=auto;html=1;exitX=0.5;exitY=0;exitDx=0;exitDy=0;entryX=0.5;entryY=1;entryDx=0;entryDy=0;labelBackgroundColor=#F4F1DE;strokeColor=#E07A5F;fontColor=#393C56;curved=1;" parent="ejFeKrvux11KH-gLDIxC-1" source="KH147xV1CtQnG2iCD21X-20" target="XHREzLJAS4Kx0iPs4Fbu-10" edge="1">
          <mxGeometry relative="1" as="geometry" />
        </mxCell>
        <mxCell id="KH147xV1CtQnG2iCD21X-20" value="&lt;font face=&quot;Comic Sans MS&quot;&gt;&lt;span style=&quot;font-size: 15px&quot;&gt;delNotExistOuterIds&lt;/span&gt;&lt;/font&gt;" style="whiteSpace=wrap;html=1;fillColor=#F2CC8F;strokeColor=#E07A5F;fontColor=#393C56;" parent="ejFeKrvux11KH-gLDIxC-1" vertex="1">
          <mxGeometry x="1130" y="447.5" width="160" height="40" as="geometry" />
        </mxCell>
        <mxCell id="KH147xV1CtQnG2iCD21X-21" value="&lt;font face=&quot;Comic Sans MS&quot;&gt;&lt;span style=&quot;font-size: 15px&quot;&gt;updateFeedStatus&lt;/span&gt;&lt;/font&gt;" style="whiteSpace=wrap;html=1;fillColor=#F2CC8F;strokeColor=#E07A5F;fontColor=#393C56;" parent="ejFeKrvux11KH-gLDIxC-1" vertex="1">
          <mxGeometry x="1130" y="322.5" width="160" height="40" as="geometry" />
        </mxCell>
        <mxCell id="XHREzLJAS4Kx0iPs4Fbu-48" style="edgeStyle=none;orthogonalLoop=1;jettySize=auto;html=1;exitX=1;exitY=0.5;exitDx=0;exitDy=0;entryX=0;entryY=0.5;entryDx=0;entryDy=0;labelBackgroundColor=#F4F1DE;strokeColor=#E07A5F;fontColor=#393C56;curved=1;" parent="ejFeKrvux11KH-gLDIxC-1" source="XHREzLJAS4Kx0iPs4Fbu-4" target="KH147xV1CtQnG2iCD21X-4" edge="1">
          <mxGeometry relative="1" as="geometry" />
        </mxCell>
        <mxCell id="XHREzLJAS4Kx0iPs4Fbu-4" value="&lt;font face=&quot;Comic Sans MS&quot;&gt;&lt;span style=&quot;font-size: 14px&quot;&gt;文字预审&lt;/span&gt;&lt;/font&gt;" style="whiteSpace=wrap;html=1;strokeWidth=2;fillColor=#F2CC8F;strokeColor=#E07A5F;direction=east;fontColor=#393C56;" parent="ejFeKrvux11KH-gLDIxC-1" vertex="1">
          <mxGeometry x="890" y="520" width="80" height="30" as="geometry" />
        </mxCell>
        <mxCell id="XHREzLJAS4Kx0iPs4Fbu-49" style="edgeStyle=none;orthogonalLoop=1;jettySize=auto;html=1;exitX=1;exitY=0.5;exitDx=0;exitDy=0;entryX=0;entryY=0.5;entryDx=0;entryDy=0;labelBackgroundColor=#F4F1DE;strokeColor=#E07A5F;fontColor=#393C56;curved=1;" parent="ejFeKrvux11KH-gLDIxC-1" source="XHREzLJAS4Kx0iPs4Fbu-5" target="KH147xV1CtQnG2iCD21X-5" edge="1">
          <mxGeometry relative="1" as="geometry" />
        </mxCell>
        <mxCell id="XHREzLJAS4Kx0iPs4Fbu-5" value="&lt;font face=&quot;Comic Sans MS&quot;&gt;&lt;span style=&quot;font-size: 14px&quot;&gt;文字预审&lt;/span&gt;&lt;/font&gt;" style="whiteSpace=wrap;html=1;strokeWidth=2;fillColor=#F2CC8F;strokeColor=#E07A5F;direction=east;fontColor=#393C56;" parent="ejFeKrvux11KH-gLDIxC-1" vertex="1">
          <mxGeometry x="890" y="585" width="80" height="30" as="geometry" />
        </mxCell>
        <mxCell id="XHREzLJAS4Kx0iPs4Fbu-19" style="edgeStyle=orthogonalEdgeStyle;orthogonalLoop=1;jettySize=auto;html=1;exitX=1;exitY=0.5;exitDx=0;exitDy=0;entryX=0;entryY=0.5;entryDx=0;entryDy=0;labelBackgroundColor=#F4F1DE;strokeColor=#E07A5F;fontColor=#393C56;curved=1;" parent="ejFeKrvux11KH-gLDIxC-1" source="XHREzLJAS4Kx0iPs4Fbu-6" target="XHREzLJAS4Kx0iPs4Fbu-4" edge="1">
          <mxGeometry relative="1" as="geometry" />
        </mxCell>
        <mxCell id="XHREzLJAS4Kx0iPs4Fbu-6" value="add ?" style="rhombus;whiteSpace=wrap;html=1;direction=east;fillColor=#F2CC8F;strokeColor=#E07A5F;fontColor=#393C56;" parent="ejFeKrvux11KH-gLDIxC-1" vertex="1">
          <mxGeometry x="810" y="517.5" width="50" height="35" as="geometry" />
        </mxCell>
        <mxCell id="XHREzLJAS4Kx0iPs4Fbu-21" style="edgeStyle=orthogonalEdgeStyle;orthogonalLoop=1;jettySize=auto;html=1;exitX=1;exitY=0.5;exitDx=0;exitDy=0;entryX=0;entryY=0.5;entryDx=0;entryDy=0;labelBackgroundColor=#F4F1DE;strokeColor=#E07A5F;fontColor=#393C56;curved=1;" parent="ejFeKrvux11KH-gLDIxC-1" source="XHREzLJAS4Kx0iPs4Fbu-7" target="XHREzLJAS4Kx0iPs4Fbu-5" edge="1">
          <mxGeometry relative="1" as="geometry" />
        </mxCell>
        <mxCell id="XHREzLJAS4Kx0iPs4Fbu-7" value="add ?" style="rhombus;whiteSpace=wrap;html=1;direction=east;fillColor=#F2CC8F;strokeColor=#E07A5F;fontColor=#393C56;" parent="ejFeKrvux11KH-gLDIxC-1" vertex="1">
          <mxGeometry x="810" y="582.5" width="50" height="35" as="geometry" />
        </mxCell>
        <mxCell id="XHREzLJAS4Kx0iPs4Fbu-62" style="edgeStyle=none;orthogonalLoop=1;jettySize=auto;html=1;exitX=0.5;exitY=0;exitDx=0;exitDy=0;entryX=0.5;entryY=1;entryDx=0;entryDy=0;labelBackgroundColor=#F4F1DE;strokeColor=#E07A5F;fontColor=#393C56;curved=1;" parent="ejFeKrvux11KH-gLDIxC-1" source="XHREzLJAS4Kx0iPs4Fbu-10" target="KH147xV1CtQnG2iCD21X-21" edge="1">
          <mxGeometry relative="1" as="geometry" />
        </mxCell>
        <mxCell id="XHREzLJAS4Kx0iPs4Fbu-10" value="&lt;font face=&quot;Comic Sans MS&quot;&gt;&lt;span style=&quot;font-size: 15px&quot;&gt;delTempFile&lt;/span&gt;&lt;/font&gt;" style="whiteSpace=wrap;html=1;fillColor=#F2CC8F;strokeColor=#E07A5F;fontColor=#393C56;" parent="ejFeKrvux11KH-gLDIxC-1" vertex="1">
          <mxGeometry x="1130" y="385" width="160" height="40" as="geometry" />
        </mxCell>
        <mxCell id="XHREzLJAS4Kx0iPs4Fbu-33" value="" style="shape=curlyBracket;whiteSpace=wrap;html=1;size=0.5;fillColor=#F2CC8F;strokeColor=#E07A5F;fontColor=#393C56;" parent="ejFeKrvux11KH-gLDIxC-1" vertex="1">
          <mxGeometry x="160" y="465" width="20" height="140" as="geometry" />
        </mxCell>
        <mxCell id="XHREzLJAS4Kx0iPs4Fbu-38" value="" style="shape=curlyBracket;whiteSpace=wrap;html=1;flipH=1;fillColor=#F2CC8F;strokeColor=#E07A5F;fontColor=#393C56;" parent="ejFeKrvux11KH-gLDIxC-1" vertex="1">
          <mxGeometry x="1090" y="470" width="20" height="130" as="geometry" />
        </mxCell>
      </root>
    </mxGraphModel>
  </diagram>
  <diagram id="7mZ1V35f3t6f3sXnEH07" name="parse">
    <mxGraphModel dx="2595" dy="794" grid="1" gridSize="10" guides="1" tooltips="1" connect="1" arrows="1" fold="1" page="1" pageScale="1" pageWidth="1169" pageHeight="827" background="#F4F1DE" math="0" shadow="0">
      <root>
        <mxCell id="zlpXtRvs97fulgu1hl_5-0" />
        <mxCell id="zlpXtRvs97fulgu1hl_5-1" parent="zlpXtRvs97fulgu1hl_5-0" />
        <mxCell id="zlpXtRvs97fulgu1hl_5-4" style="edgeStyle=orthogonalEdgeStyle;orthogonalLoop=1;jettySize=auto;html=1;exitX=0.5;exitY=1;exitDx=0;exitDy=0;entryX=0.5;entryY=0;entryDx=0;entryDy=0;strokeColor=#E07A5F;fontColor=#393C56;curved=1;labelBackgroundColor=#F4F1DE;" parent="zlpXtRvs97fulgu1hl_5-1" source="zlpXtRvs97fulgu1hl_5-5" target="zlpXtRvs97fulgu1hl_5-10" edge="1">
          <mxGeometry relative="1" as="geometry" />
        </mxCell>
        <mxCell id="zlpXtRvs97fulgu1hl_5-5" value="&lt;font face=&quot;comic sans ms&quot;&gt;&lt;span style=&quot;font-size: 15px&quot;&gt;FeedCheckHandler&lt;br&gt;&lt;/span&gt;&lt;/font&gt;" style="whiteSpace=wrap;html=1;fillColor=#F2CC8F;strokeColor=#E07A5F;fontColor=#393C56;" parent="zlpXtRvs97fulgu1hl_5-1" vertex="1">
          <mxGeometry x="-50" y="100" width="200" height="40" as="geometry" />
        </mxCell>
        <mxCell id="zlpXtRvs97fulgu1hl_5-7" style="edgeStyle=orthogonalEdgeStyle;orthogonalLoop=1;jettySize=auto;html=1;exitX=0.5;exitY=1;exitDx=0;exitDy=0;entryX=0.5;entryY=0;entryDx=0;entryDy=0;strokeColor=#E07A5F;fontColor=#393C56;curved=1;labelBackgroundColor=#F4F1DE;" parent="zlpXtRvs97fulgu1hl_5-1" source="zlpXtRvs97fulgu1hl_5-8" target="zlpXtRvs97fulgu1hl_5-12" edge="1">
          <mxGeometry relative="1" as="geometry" />
        </mxCell>
        <mxCell id="zlpXtRvs97fulgu1hl_5-8" value="&lt;font style=&quot;font-size: 15px&quot; face=&quot;Comic Sans MS&quot;&gt;FileCrawlerHandler&lt;/font&gt;" style="whiteSpace=wrap;html=1;fillColor=#F2CC8F;strokeColor=#E07A5F;fontColor=#393C56;" parent="zlpXtRvs97fulgu1hl_5-1" vertex="1">
          <mxGeometry x="-50" y="220" width="200" height="40" as="geometry" />
        </mxCell>
        <mxCell id="zlpXtRvs97fulgu1hl_5-9" style="edgeStyle=orthogonalEdgeStyle;orthogonalLoop=1;jettySize=auto;html=1;exitX=0.5;exitY=1;exitDx=0;exitDy=0;entryX=0.5;entryY=0;entryDx=0;entryDy=0;strokeColor=#E07A5F;fontColor=#393C56;curved=1;labelBackgroundColor=#F4F1DE;" parent="zlpXtRvs97fulgu1hl_5-1" source="zlpXtRvs97fulgu1hl_5-10" target="zlpXtRvs97fulgu1hl_5-8" edge="1">
          <mxGeometry relative="1" as="geometry" />
        </mxCell>
        <mxCell id="zlpXtRvs97fulgu1hl_5-10" value="&lt;font style=&quot;font-size: 15px&quot; face=&quot;Comic Sans MS&quot;&gt;FeedPretreatHandler&lt;/font&gt;" style="whiteSpace=wrap;html=1;fillColor=#F2CC8F;strokeColor=#E07A5F;fontColor=#393C56;" parent="zlpXtRvs97fulgu1hl_5-1" vertex="1">
          <mxGeometry x="-50" y="160" width="200" height="40" as="geometry" />
        </mxCell>
        <mxCell id="vH2971F0jiOvivA1e4d8-68" style="edgeStyle=orthogonalEdgeStyle;curved=0;rounded=1;sketch=0;orthogonalLoop=1;jettySize=auto;html=1;exitX=0.5;exitY=1;exitDx=0;exitDy=0;entryX=0.5;entryY=0;entryDx=0;entryDy=0;fontColor=#393C56;strokeColor=#E07A5F;fillColor=#F2CC8F;" parent="zlpXtRvs97fulgu1hl_5-1" source="zlpXtRvs97fulgu1hl_5-12" target="zlpXtRvs97fulgu1hl_5-16" edge="1">
          <mxGeometry relative="1" as="geometry" />
        </mxCell>
        <mxCell id="zlpXtRvs97fulgu1hl_5-12" value="&lt;font face=&quot;Comic Sans MS&quot;&gt;&lt;span style=&quot;font-size: 15px&quot;&gt;SubSiteMapCrawlerHandler&lt;/span&gt;&lt;/font&gt;" style="whiteSpace=wrap;html=1;fillColor=#F2CC8F;strokeColor=#E07A5F;fontColor=#393C56;" parent="zlpXtRvs97fulgu1hl_5-1" vertex="1">
          <mxGeometry x="-50" y="290" width="200" height="40" as="geometry" />
        </mxCell>
        <mxCell id="zlpXtRvs97fulgu1hl_5-16" value="" style="whiteSpace=wrap;html=1;fillColor=#F2CC8F;strokeColor=#E07A5F;fontColor=#393C56;" parent="zlpXtRvs97fulgu1hl_5-1" vertex="1">
          <mxGeometry x="-55" y="360" width="210" height="370" as="geometry" />
        </mxCell>
        <mxCell id="zlpXtRvs97fulgu1hl_5-19" value="&lt;font face=&quot;Comic Sans MS&quot; style=&quot;font-size: 13px&quot;&gt;SubSiteMapOutIdParse&lt;/font&gt;" style="whiteSpace=wrap;html=1;fillColor=#F2CC8F;strokeColor=#E07A5F;fontColor=#393C56;" parent="zlpXtRvs97fulgu1hl_5-1" vertex="1">
          <mxGeometry x="-45" y="472.5" width="190" height="40" as="geometry" />
        </mxCell>
        <mxCell id="vH2971F0jiOvivA1e4d8-65" style="edgeStyle=orthogonalEdgeStyle;curved=0;rounded=1;sketch=0;orthogonalLoop=1;jettySize=auto;html=1;exitX=0.5;exitY=0;exitDx=0;exitDy=0;entryX=0.5;entryY=1;entryDx=0;entryDy=0;fontColor=#393C56;strokeColor=#E07A5F;fillColor=#F2CC8F;" parent="zlpXtRvs97fulgu1hl_5-1" source="zlpXtRvs97fulgu1hl_5-70" target="vH2971F0jiOvivA1e4d8-58" edge="1">
          <mxGeometry relative="1" as="geometry" />
        </mxCell>
        <mxCell id="zlpXtRvs97fulgu1hl_5-70" value="&lt;font face=&quot;Comic Sans MS&quot;&gt;&lt;span style=&quot;font-size: 15px&quot;&gt;StatisticsHandler&lt;/span&gt;&lt;/font&gt;" style="whiteSpace=wrap;html=1;fillColor=#F2CC8F;strokeColor=#E07A5F;fontColor=#393C56;" parent="zlpXtRvs97fulgu1hl_5-1" vertex="1">
          <mxGeometry x="890" y="210" width="200" height="40" as="geometry" />
        </mxCell>
        <mxCell id="R8RDPjUa0YeL7c6S2yjw-9" value="&lt;font face=&quot;Comic Sans MS&quot;&gt;&lt;span style=&quot;font-size: 14px&quot;&gt;outerID++&lt;/span&gt;&lt;/font&gt;" style="whiteSpace=wrap;html=1;strokeWidth=2;fillColor=#F2CC8F;strokeColor=#E07A5F;direction=east;fontColor=#393C56;" parent="zlpXtRvs97fulgu1hl_5-1" vertex="1">
          <mxGeometry x="10" y="530" width="80" height="30" as="geometry" />
        </mxCell>
        <mxCell id="vH2971F0jiOvivA1e4d8-10" style="edgeStyle=orthogonalEdgeStyle;rounded=0;orthogonalLoop=1;jettySize=auto;html=1;exitX=0.5;exitY=1;exitDx=0;exitDy=0;entryX=0.5;entryY=0;entryDx=0;entryDy=0;strokeColor=#E07A5F;fontColor=#393C56;labelBackgroundColor=#F4F1DE;" parent="zlpXtRvs97fulgu1hl_5-1" target="R8RDPjUa0YeL7c6S2yjw-34" edge="1">
          <mxGeometry relative="1" as="geometry">
            <mxPoint x="50" y="622.5" as="sourcePoint" />
          </mxGeometry>
        </mxCell>
        <mxCell id="R8RDPjUa0YeL7c6S2yjw-25" style="edgeStyle=orthogonalEdgeStyle;rounded=0;orthogonalLoop=1;jettySize=auto;html=1;exitX=0.5;exitY=1;exitDx=0;exitDy=0;entryX=0.5;entryY=0;entryDx=0;entryDy=0;strokeColor=#E07A5F;fontColor=#393C56;labelBackgroundColor=#F4F1DE;" parent="zlpXtRvs97fulgu1hl_5-1" source="R8RDPjUa0YeL7c6S2yjw-24" target="zlpXtRvs97fulgu1hl_5-19" edge="1">
          <mxGeometry relative="1" as="geometry" />
        </mxCell>
        <mxCell id="vH2971F0jiOvivA1e4d8-9" value="Y" style="edgeLabel;html=1;align=center;verticalAlign=middle;resizable=0;points=[];fontColor=#393C56;labelBackgroundColor=#F4F1DE;" parent="R8RDPjUa0YeL7c6S2yjw-25" vertex="1" connectable="0">
          <mxGeometry x="-0.1444" relative="1" as="geometry">
            <mxPoint as="offset" />
          </mxGeometry>
        </mxCell>
        <mxCell id="vH2971F0jiOvivA1e4d8-14" style="edgeStyle=orthogonalEdgeStyle;rounded=0;orthogonalLoop=1;jettySize=auto;html=1;exitX=1;exitY=0.5;exitDx=0;exitDy=0;strokeColor=#E07A5F;fontColor=#393C56;labelBackgroundColor=#F4F1DE;" parent="zlpXtRvs97fulgu1hl_5-1" source="R8RDPjUa0YeL7c6S2yjw-24" edge="1">
          <mxGeometry relative="1" as="geometry">
            <mxPoint x="330" y="421" as="targetPoint" />
          </mxGeometry>
        </mxCell>
        <mxCell id="R8RDPjUa0YeL7c6S2yjw-24" value="&lt;font face=&quot;Comic Sans MS&quot;&gt;protectionStatus==1&lt;/font&gt;" style="rhombus;whiteSpace=wrap;html=1;fillColor=#F2CC8F;strokeColor=#E07A5F;fontColor=#393C56;" parent="zlpXtRvs97fulgu1hl_5-1" vertex="1">
          <mxGeometry x="-20" y="391.5" width="140" height="58.5" as="geometry" />
        </mxCell>
        <mxCell id="R8RDPjUa0YeL7c6S2yjw-34" value="&lt;span style=&quot;color: rgb(57 , 60 , 86) ; font-family: &amp;#34;comic sans ms&amp;#34; ; font-size: 15px&quot;&gt;更新失败（超阈值）&lt;/span&gt;" style="rounded=1;whiteSpace=wrap;html=1;fillColor=#F2CC8F;strokeColor=#E07A5F;fontColor=#393C56;" parent="zlpXtRvs97fulgu1hl_5-1" vertex="1">
          <mxGeometry x="-25" y="670" width="150" height="25" as="geometry" />
        </mxCell>
        <mxCell id="vH2971F0jiOvivA1e4d8-3" style="edgeStyle=orthogonalEdgeStyle;rounded=0;orthogonalLoop=1;jettySize=auto;html=1;exitX=0.5;exitY=1;exitDx=0;exitDy=0;entryX=0.5;entryY=0;entryDx=0;entryDy=0;strokeColor=#E07A5F;fontColor=#393C56;labelBackgroundColor=#F4F1DE;" parent="zlpXtRvs97fulgu1hl_5-1" source="R8RDPjUa0YeL7c6S2yjw-35" target="zlpXtRvs97fulgu1hl_5-5" edge="1">
          <mxGeometry relative="1" as="geometry" />
        </mxCell>
        <mxCell id="R8RDPjUa0YeL7c6S2yjw-35" value="&lt;span style=&quot;color: rgb(57 , 60 , 86) ; font-family: &amp;#34;comic sans ms&amp;#34; ; font-size: 15px&quot;&gt;CrawlerJob&lt;/span&gt;" style="rounded=1;whiteSpace=wrap;html=1;fillColor=#F2CC8F;strokeColor=#E07A5F;fontColor=#393C56;" parent="zlpXtRvs97fulgu1hl_5-1" vertex="1">
          <mxGeometry x="-50" y="35" width="200" height="40" as="geometry" />
        </mxCell>
        <mxCell id="R8RDPjUa0YeL7c6S2yjw-37" value="&lt;font style=&quot;font-size: 15px&quot; face=&quot;Comic Sans MS&quot;&gt;End&lt;/font&gt;" style="rounded=1;whiteSpace=wrap;html=1;sketch=0;fontColor=#393C56;strokeColor=#E07A5F;fillColor=#F2CC8F;" parent="zlpXtRvs97fulgu1hl_5-1" vertex="1">
          <mxGeometry x="890" y="60" width="200" height="40" as="geometry" />
        </mxCell>
        <mxCell id="vH2971F0jiOvivA1e4d8-0" value="&lt;font style=&quot;font-size: 12px&quot;&gt;&lt;font face=&quot;comic sans ms&quot; style=&quot;color: rgb(57 , 60 , 86) ; font-size: 12px&quot;&gt;feed&lt;br&gt;&lt;/font&gt;&lt;span style=&quot;color: rgb(57 , 60 , 86) ; font-family: &amp;#34;comic sans ms&amp;#34;&quot;&gt;skuConvertRule&lt;br&gt;&lt;/span&gt;&lt;font face=&quot;comic sans ms&quot; style=&quot;color: rgb(57 , 60 , 86) ; font-size: 12px&quot;&gt;SchemaMap&amp;nbsp; +&amp;nbsp;&lt;/font&gt;&lt;span style=&quot;color: rgb(57 , 60 , 86) ; font-family: &amp;#34;comic sans ms&amp;#34;&quot;&gt;check&lt;/span&gt;&lt;br style=&quot;color: rgb(57 , 60 , 86) ; font-family: &amp;#34;comic sans ms&amp;#34;&quot;&gt;&lt;span style=&quot;color: rgb(57 , 60 , 86) ; font-family: &amp;#34;comic sans ms&amp;#34;&quot;&gt;（参数、状态、时间）&lt;/span&gt;&lt;/font&gt;" style="text;html=1;align=center;verticalAlign=middle;resizable=0;points=[];autosize=1;strokeColor=none;fontColor=#393C56;" parent="zlpXtRvs97fulgu1hl_5-1" vertex="1">
          <mxGeometry x="150" y="85" width="140" height="70" as="geometry" />
        </mxCell>
        <mxCell id="vH2971F0jiOvivA1e4d8-4" value="&lt;font face=&quot;Comic Sans MS&quot;&gt;多线程组装sitemap 并落盘&lt;br&gt;&lt;/font&gt;" style="text;html=1;align=center;verticalAlign=middle;resizable=0;points=[];autosize=1;strokeColor=none;fontColor=#393C56;" parent="zlpXtRvs97fulgu1hl_5-1" vertex="1">
          <mxGeometry x="150" y="300" width="160" height="20" as="geometry" />
        </mxCell>
        <mxCell id="vH2971F0jiOvivA1e4d8-5" value="更新保护" style="text;html=1;align=center;verticalAlign=middle;resizable=0;points=[];autosize=1;strokeColor=none;fontColor=#393C56;" parent="zlpXtRvs97fulgu1hl_5-1" vertex="1">
          <mxGeometry x="160" y="370" width="60" height="20" as="geometry" />
        </mxCell>
        <mxCell id="vH2971F0jiOvivA1e4d8-7" value="&lt;span style=&quot;color: rgb(57 , 60 , 86) ; font-family: &amp;#34;comic sans ms&amp;#34; ; font-size: 15px&quot;&gt;FuseHandler&lt;/span&gt;" style="text;html=1;strokeColor=none;fillColor=none;align=center;verticalAlign=middle;whiteSpace=wrap;rounded=0;fontColor=#393C56;" parent="zlpXtRvs97fulgu1hl_5-1" vertex="1">
          <mxGeometry x="-20" y="360" width="40" height="20" as="geometry" />
        </mxCell>
        <mxCell id="vH2971F0jiOvivA1e4d8-12" value="Y" style="edgeStyle=orthogonalEdgeStyle;rounded=0;orthogonalLoop=1;jettySize=auto;html=1;strokeColor=#E07A5F;fontColor=#393C56;labelBackgroundColor=#F4F1DE;" parent="zlpXtRvs97fulgu1hl_5-1" source="vH2971F0jiOvivA1e4d8-11" target="R8RDPjUa0YeL7c6S2yjw-34" edge="1">
          <mxGeometry relative="1" as="geometry" />
        </mxCell>
        <mxCell id="vH2971F0jiOvivA1e4d8-45" style="edgeStyle=orthogonalEdgeStyle;curved=0;rounded=1;sketch=0;orthogonalLoop=1;jettySize=auto;html=1;exitX=1;exitY=0.5;exitDx=0;exitDy=0;entryX=0.5;entryY=1;entryDx=0;entryDy=0;fontColor=#393C56;strokeColor=#E07A5F;fillColor=#F2CC8F;" parent="zlpXtRvs97fulgu1hl_5-1" source="vH2971F0jiOvivA1e4d8-11" target="vH2971F0jiOvivA1e4d8-15" edge="1">
          <mxGeometry relative="1" as="geometry" />
        </mxCell>
        <mxCell id="vH2971F0jiOvivA1e4d8-11" value="&lt;font style=&quot;font-size: 8px&quot;&gt;&lt;span style=&quot;color: rgb(57 , 60 , 86) ; font-size: 8px&quot;&gt;(oldIDs - newIDs) / newIDs&lt;/span&gt;&lt;br style=&quot;color: rgb(57 , 60 , 86) ; font-size: 8px&quot;&gt;&lt;span style=&quot;color: rgb(57 , 60 , 86) ; font-size: 8px&quot;&gt;&amp;gt; protectionThreshold&lt;/span&gt;&lt;/font&gt;" style="rhombus;whiteSpace=wrap;html=1;fillColor=#F2CC8F;strokeColor=#E07A5F;fontColor=#393C56;" parent="zlpXtRvs97fulgu1hl_5-1" vertex="1">
          <mxGeometry x="-2.5" y="577.5" width="105" height="52.5" as="geometry" />
        </mxCell>
        <mxCell id="vH2971F0jiOvivA1e4d8-47" style="edgeStyle=orthogonalEdgeStyle;curved=0;rounded=1;sketch=0;orthogonalLoop=1;jettySize=auto;html=1;exitX=1;exitY=0.5;exitDx=0;exitDy=0;entryX=0;entryY=0.5;entryDx=0;entryDy=0;fontColor=#393C56;strokeColor=#E07A5F;fillColor=#F2CC8F;" parent="zlpXtRvs97fulgu1hl_5-1" source="vH2971F0jiOvivA1e4d8-15" target="vH2971F0jiOvivA1e4d8-46" edge="1">
          <mxGeometry relative="1" as="geometry" />
        </mxCell>
        <mxCell id="vH2971F0jiOvivA1e4d8-15" value="" style="whiteSpace=wrap;html=1;fillColor=#F2CC8F;strokeColor=#E07A5F;fontColor=#393C56;" parent="zlpXtRvs97fulgu1hl_5-1" vertex="1">
          <mxGeometry x="330" y="320" width="510" height="198.5" as="geometry" />
        </mxCell>
        <mxCell id="vH2971F0jiOvivA1e4d8-16" value="&lt;span style=&quot;color: rgb(57 , 60 , 86) ; font-family: &amp;#34;comic sans ms&amp;#34; ; font-size: 15px&quot;&gt;SubSiteMapParseHandler&lt;/span&gt;" style="text;html=1;strokeColor=none;fillColor=none;align=center;verticalAlign=middle;whiteSpace=wrap;rounded=0;fontColor=#393C56;" parent="zlpXtRvs97fulgu1hl_5-1" vertex="1">
          <mxGeometry x="399.5" y="324.25" width="40" height="20" as="geometry" />
        </mxCell>
        <mxCell id="vH2971F0jiOvivA1e4d8-17" value="只解析outId,&lt;br&gt;不考虑lastmod" style="text;html=1;strokeColor=none;fillColor=none;align=center;verticalAlign=middle;whiteSpace=wrap;rounded=0;fontColor=#393C56;" parent="zlpXtRvs97fulgu1hl_5-1" vertex="1">
          <mxGeometry x="150" y="478.75" width="100" height="27.5" as="geometry" />
        </mxCell>
        <mxCell id="vH2971F0jiOvivA1e4d8-19" style="edgeStyle=orthogonalEdgeStyle;orthogonalLoop=1;jettySize=auto;html=1;exitX=1;exitY=0.5;exitDx=0;exitDy=0;entryX=0;entryY=0.5;entryDx=0;entryDy=0;strokeColor=#E07A5F;fontColor=#393C56;curved=1;labelBackgroundColor=#F4F1DE;" parent="zlpXtRvs97fulgu1hl_5-1" source="vH2971F0jiOvivA1e4d8-20" target="vH2971F0jiOvivA1e4d8-25" edge="1">
          <mxGeometry relative="1" as="geometry" />
        </mxCell>
        <mxCell id="vH2971F0jiOvivA1e4d8-20" value="&lt;font face=&quot;Comic Sans MS&quot;&gt;&lt;span style=&quot;font-size: 14px&quot;&gt;lastmod&lt;br&gt;检验&lt;/span&gt;&lt;/font&gt;" style="whiteSpace=wrap;html=1;strokeWidth=2;fillColor=#F2CC8F;strokeColor=#E07A5F;direction=east;fontColor=#393C56;" parent="zlpXtRvs97fulgu1hl_5-1" vertex="1">
          <mxGeometry x="339.5" y="354.25" width="80" height="30" as="geometry" />
        </mxCell>
        <mxCell id="vH2971F0jiOvivA1e4d8-21" style="edgeStyle=none;orthogonalLoop=1;jettySize=auto;html=1;exitX=1;exitY=0.5;exitDx=0;exitDy=0;entryX=0;entryY=0.5;entryDx=0;entryDy=0;strokeColor=#E07A5F;fontColor=#393C56;curved=1;labelBackgroundColor=#F4F1DE;" parent="zlpXtRvs97fulgu1hl_5-1" source="vH2971F0jiOvivA1e4d8-22" target="vH2971F0jiOvivA1e4d8-26" edge="1">
          <mxGeometry relative="1" as="geometry" />
        </mxCell>
        <mxCell id="vH2971F0jiOvivA1e4d8-22" value="&lt;font face=&quot;Comic Sans MS&quot;&gt;&lt;span style=&quot;font-size: 14px&quot;&gt;lastmod&lt;br&gt;校验&lt;/span&gt;&lt;/font&gt;" style="whiteSpace=wrap;html=1;strokeWidth=2;fillColor=#F2CC8F;strokeColor=#E07A5F;direction=east;fontColor=#393C56;" parent="zlpXtRvs97fulgu1hl_5-1" vertex="1">
          <mxGeometry x="339.5" y="414.25" width="80" height="30" as="geometry" />
        </mxCell>
        <mxCell id="vH2971F0jiOvivA1e4d8-23" style="edgeStyle=none;orthogonalLoop=1;jettySize=auto;html=1;exitX=1;exitY=0.5;exitDx=0;exitDy=0;entryX=0;entryY=0.5;entryDx=0;entryDy=0;strokeColor=#E07A5F;fontColor=#393C56;curved=1;labelBackgroundColor=#F4F1DE;" parent="zlpXtRvs97fulgu1hl_5-1" source="vH2971F0jiOvivA1e4d8-24" target="vH2971F0jiOvivA1e4d8-27" edge="1">
          <mxGeometry relative="1" as="geometry" />
        </mxCell>
        <mxCell id="vH2971F0jiOvivA1e4d8-24" value="&lt;font face=&quot;Comic Sans MS&quot;&gt;&lt;span style=&quot;font-size: 14px&quot;&gt;lastmod&lt;br&gt;校验&lt;/span&gt;&lt;/font&gt;" style="whiteSpace=wrap;html=1;strokeWidth=2;fillColor=#F2CC8F;strokeColor=#E07A5F;direction=east;fontColor=#393C56;" parent="zlpXtRvs97fulgu1hl_5-1" vertex="1">
          <mxGeometry x="339.5" y="479.25" width="80" height="30" as="geometry" />
        </mxCell>
        <mxCell id="vH2971F0jiOvivA1e4d8-25" value="&lt;font face=&quot;Comic Sans MS&quot;&gt;&lt;span style=&quot;font-size: 14px&quot;&gt;create sitemap&lt;/span&gt;&lt;/font&gt;" style="whiteSpace=wrap;html=1;strokeWidth=2;fillColor=#F2CC8F;strokeColor=#E07A5F;direction=east;fontColor=#393C56;" parent="zlpXtRvs97fulgu1hl_5-1" vertex="1">
          <mxGeometry x="439.5" y="354.25" width="80" height="30" as="geometry" />
        </mxCell>
        <mxCell id="vH2971F0jiOvivA1e4d8-26" value="&lt;span style=&quot;font-family: &amp;#34;comic sans ms&amp;#34; ; font-size: 14px&quot;&gt;create sitemap&lt;/span&gt;" style="whiteSpace=wrap;html=1;strokeWidth=2;fillColor=#F2CC8F;strokeColor=#E07A5F;direction=east;fontColor=#393C56;" parent="zlpXtRvs97fulgu1hl_5-1" vertex="1">
          <mxGeometry x="439.5" y="414.25" width="80" height="30" as="geometry" />
        </mxCell>
        <mxCell id="vH2971F0jiOvivA1e4d8-27" value="&lt;span style=&quot;font-family: &amp;#34;comic sans ms&amp;#34; ; font-size: 14px&quot;&gt;create sitemap&lt;/span&gt;" style="whiteSpace=wrap;html=1;strokeWidth=2;fillColor=#F2CC8F;strokeColor=#E07A5F;direction=east;fontColor=#393C56;" parent="zlpXtRvs97fulgu1hl_5-1" vertex="1">
          <mxGeometry x="439.5" y="479.25" width="80" height="30" as="geometry" />
        </mxCell>
        <mxCell id="vH2971F0jiOvivA1e4d8-28" style="edgeStyle=orthogonalEdgeStyle;orthogonalLoop=1;jettySize=auto;html=1;exitX=1;exitY=0.5;exitDx=0;exitDy=0;entryX=0;entryY=0.5;entryDx=0;entryDy=0;strokeColor=#E07A5F;fontColor=#393C56;curved=1;labelBackgroundColor=#F4F1DE;" parent="zlpXtRvs97fulgu1hl_5-1" target="vH2971F0jiOvivA1e4d8-31" edge="1">
          <mxGeometry relative="1" as="geometry">
            <mxPoint x="519.5" y="369.25" as="sourcePoint" />
          </mxGeometry>
        </mxCell>
        <mxCell id="vH2971F0jiOvivA1e4d8-29" style="edgeStyle=none;orthogonalLoop=1;jettySize=auto;html=1;exitX=1;exitY=0.5;exitDx=0;exitDy=0;entryX=0;entryY=0.5;entryDx=0;entryDy=0;strokeColor=#E07A5F;fontColor=#393C56;curved=1;labelBackgroundColor=#F4F1DE;" parent="zlpXtRvs97fulgu1hl_5-1" target="vH2971F0jiOvivA1e4d8-32" edge="1">
          <mxGeometry relative="1" as="geometry">
            <mxPoint x="519.5" y="429.25" as="sourcePoint" />
          </mxGeometry>
        </mxCell>
        <mxCell id="vH2971F0jiOvivA1e4d8-30" style="edgeStyle=none;orthogonalLoop=1;jettySize=auto;html=1;exitX=1;exitY=0.5;exitDx=0;exitDy=0;entryX=0;entryY=0.5;entryDx=0;entryDy=0;strokeColor=#E07A5F;fontColor=#393C56;curved=1;labelBackgroundColor=#F4F1DE;" parent="zlpXtRvs97fulgu1hl_5-1" target="vH2971F0jiOvivA1e4d8-33" edge="1">
          <mxGeometry relative="1" as="geometry">
            <mxPoint x="519.5" y="494.25" as="sourcePoint" />
          </mxGeometry>
        </mxCell>
        <mxCell id="vH2971F0jiOvivA1e4d8-31" value="&lt;font face=&quot;Comic Sans MS&quot;&gt;&lt;span style=&quot;font-size: 14px&quot;&gt;解析 subxml&lt;/span&gt;&lt;/font&gt;" style="whiteSpace=wrap;html=1;strokeWidth=2;fillColor=#F2CC8F;strokeColor=#E07A5F;direction=east;fontColor=#393C56;" parent="zlpXtRvs97fulgu1hl_5-1" vertex="1">
          <mxGeometry x="539.5" y="354.25" width="80" height="30" as="geometry" />
        </mxCell>
        <mxCell id="vH2971F0jiOvivA1e4d8-32" value="&lt;span style=&quot;font-family: &amp;#34;comic sans ms&amp;#34; ; font-size: 14px&quot;&gt;解析 subxml&lt;/span&gt;" style="whiteSpace=wrap;html=1;strokeWidth=2;fillColor=#F2CC8F;strokeColor=#E07A5F;direction=east;fontColor=#393C56;" parent="zlpXtRvs97fulgu1hl_5-1" vertex="1">
          <mxGeometry x="539.5" y="414.25" width="80" height="30" as="geometry" />
        </mxCell>
        <mxCell id="vH2971F0jiOvivA1e4d8-33" value="&lt;span style=&quot;font-family: &amp;#34;comic sans ms&amp;#34; ; font-size: 14px&quot;&gt;解析 subxml&lt;/span&gt;" style="whiteSpace=wrap;html=1;strokeWidth=2;fillColor=#F2CC8F;strokeColor=#E07A5F;direction=east;fontColor=#393C56;" parent="zlpXtRvs97fulgu1hl_5-1" vertex="1">
          <mxGeometry x="539.5" y="479.25" width="80" height="30" as="geometry" />
        </mxCell>
        <mxCell id="vH2971F0jiOvivA1e4d8-35" value="items，siteMap" style="text;html=1;align=center;verticalAlign=middle;resizable=0;points=[];autosize=1;strokeColor=none;fontColor=#393C56;" parent="zlpXtRvs97fulgu1hl_5-1" vertex="1">
          <mxGeometry x="750" y="525" width="100" height="20" as="geometry" />
        </mxCell>
        <mxCell id="vH2971F0jiOvivA1e4d8-36" style="edgeStyle=orthogonalEdgeStyle;orthogonalLoop=1;jettySize=auto;html=1;exitX=1;exitY=0.5;exitDx=0;exitDy=0;entryX=0;entryY=0.5;entryDx=0;entryDy=0;strokeColor=#E07A5F;fontColor=#393C56;curved=1;labelBackgroundColor=#F4F1DE;" parent="zlpXtRvs97fulgu1hl_5-1" source="vH2971F0jiOvivA1e4d8-37" target="vH2971F0jiOvivA1e4d8-42" edge="1">
          <mxGeometry relative="1" as="geometry" />
        </mxCell>
        <mxCell id="vH2971F0jiOvivA1e4d8-37" value="&lt;font face=&quot;Comic Sans MS&quot;&gt;&lt;span style=&quot;font-size: 14px&quot;&gt;规则转换&lt;/span&gt;&lt;/font&gt;" style="whiteSpace=wrap;html=1;strokeWidth=2;fillColor=#F2CC8F;strokeColor=#E07A5F;direction=east;fontColor=#393C56;" parent="zlpXtRvs97fulgu1hl_5-1" vertex="1">
          <mxGeometry x="639.5" y="354.25" width="80" height="30" as="geometry" />
        </mxCell>
        <mxCell id="vH2971F0jiOvivA1e4d8-38" style="edgeStyle=none;orthogonalLoop=1;jettySize=auto;html=1;exitX=1;exitY=0.5;exitDx=0;exitDy=0;entryX=0;entryY=0.5;entryDx=0;entryDy=0;strokeColor=#E07A5F;fontColor=#393C56;curved=1;labelBackgroundColor=#F4F1DE;" parent="zlpXtRvs97fulgu1hl_5-1" source="vH2971F0jiOvivA1e4d8-39" target="vH2971F0jiOvivA1e4d8-43" edge="1">
          <mxGeometry relative="1" as="geometry" />
        </mxCell>
        <mxCell id="vH2971F0jiOvivA1e4d8-39" value="&lt;font face=&quot;Comic Sans MS&quot;&gt;&lt;span style=&quot;font-size: 14px&quot;&gt;规则转换&lt;/span&gt;&lt;/font&gt;" style="whiteSpace=wrap;html=1;strokeWidth=2;fillColor=#F2CC8F;strokeColor=#E07A5F;direction=east;fontColor=#393C56;" parent="zlpXtRvs97fulgu1hl_5-1" vertex="1">
          <mxGeometry x="639.5" y="414.25" width="80" height="30" as="geometry" />
        </mxCell>
        <mxCell id="vH2971F0jiOvivA1e4d8-40" style="edgeStyle=none;orthogonalLoop=1;jettySize=auto;html=1;exitX=1;exitY=0.5;exitDx=0;exitDy=0;entryX=0;entryY=0.5;entryDx=0;entryDy=0;strokeColor=#E07A5F;fontColor=#393C56;curved=1;labelBackgroundColor=#F4F1DE;" parent="zlpXtRvs97fulgu1hl_5-1" source="vH2971F0jiOvivA1e4d8-41" target="vH2971F0jiOvivA1e4d8-44" edge="1">
          <mxGeometry relative="1" as="geometry" />
        </mxCell>
        <mxCell id="vH2971F0jiOvivA1e4d8-41" value="&lt;font face=&quot;Comic Sans MS&quot;&gt;&lt;span style=&quot;font-size: 14px&quot;&gt;规则转换&lt;/span&gt;&lt;/font&gt;" style="whiteSpace=wrap;html=1;strokeWidth=2;fillColor=#F2CC8F;strokeColor=#E07A5F;direction=east;fontColor=#393C56;" parent="zlpXtRvs97fulgu1hl_5-1" vertex="1">
          <mxGeometry x="639.5" y="479.25" width="80" height="30" as="geometry" />
        </mxCell>
        <mxCell id="vH2971F0jiOvivA1e4d8-42" value="&lt;font face=&quot;Comic Sans MS&quot;&gt;&lt;span style=&quot;font-size: 14px&quot;&gt;数据检验&lt;/span&gt;&lt;/font&gt;" style="whiteSpace=wrap;html=1;strokeWidth=2;fillColor=#F2CC8F;strokeColor=#E07A5F;direction=east;fontColor=#393C56;" parent="zlpXtRvs97fulgu1hl_5-1" vertex="1">
          <mxGeometry x="739.5" y="354.25" width="80" height="30" as="geometry" />
        </mxCell>
        <mxCell id="vH2971F0jiOvivA1e4d8-43" value="&lt;font face=&quot;Comic Sans MS&quot;&gt;&lt;span style=&quot;font-size: 14px&quot;&gt;数据校验&lt;/span&gt;&lt;/font&gt;" style="whiteSpace=wrap;html=1;strokeWidth=2;fillColor=#F2CC8F;strokeColor=#E07A5F;direction=east;fontColor=#393C56;" parent="zlpXtRvs97fulgu1hl_5-1" vertex="1">
          <mxGeometry x="739.5" y="414.25" width="80" height="30" as="geometry" />
        </mxCell>
        <mxCell id="vH2971F0jiOvivA1e4d8-44" value="&lt;font face=&quot;Comic Sans MS&quot;&gt;&lt;span style=&quot;font-size: 14px&quot;&gt;数据校验&lt;/span&gt;&lt;/font&gt;" style="whiteSpace=wrap;html=1;strokeWidth=2;fillColor=#F2CC8F;strokeColor=#E07A5F;direction=east;fontColor=#393C56;" parent="zlpXtRvs97fulgu1hl_5-1" vertex="1">
          <mxGeometry x="739.5" y="479.25" width="80" height="30" as="geometry" />
        </mxCell>
        <mxCell id="vH2971F0jiOvivA1e4d8-63" style="edgeStyle=orthogonalEdgeStyle;curved=0;rounded=1;sketch=0;orthogonalLoop=1;jettySize=auto;html=1;exitX=0.5;exitY=0;exitDx=0;exitDy=0;entryX=0.5;entryY=1;entryDx=0;entryDy=0;fontColor=#393C56;strokeColor=#E07A5F;fillColor=#F2CC8F;" parent="zlpXtRvs97fulgu1hl_5-1" source="vH2971F0jiOvivA1e4d8-46" target="vH2971F0jiOvivA1e4d8-48" edge="1">
          <mxGeometry relative="1" as="geometry" />
        </mxCell>
        <mxCell id="vH2971F0jiOvivA1e4d8-46" value="&lt;font face=&quot;Comic Sans MS&quot;&gt;&lt;span style=&quot;font-size: 15px&quot;&gt;SkuAuditHandler&lt;/span&gt;&lt;/font&gt;" style="whiteSpace=wrap;html=1;fillColor=#F2CC8F;strokeColor=#E07A5F;fontColor=#393C56;" parent="zlpXtRvs97fulgu1hl_5-1" vertex="1">
          <mxGeometry x="890" y="399.25" width="200" height="40" as="geometry" />
        </mxCell>
        <mxCell id="vH2971F0jiOvivA1e4d8-64" style="edgeStyle=orthogonalEdgeStyle;curved=0;rounded=1;sketch=0;orthogonalLoop=1;jettySize=auto;html=1;exitX=0.5;exitY=0;exitDx=0;exitDy=0;entryX=0.5;entryY=1;entryDx=0;entryDy=0;fontColor=#393C56;strokeColor=#E07A5F;fillColor=#F2CC8F;" parent="zlpXtRvs97fulgu1hl_5-1" source="vH2971F0jiOvivA1e4d8-48" target="zlpXtRvs97fulgu1hl_5-70" edge="1">
          <mxGeometry relative="1" as="geometry" />
        </mxCell>
        <mxCell id="vH2971F0jiOvivA1e4d8-48" value="&lt;font face=&quot;Comic Sans MS&quot;&gt;&lt;span style=&quot;font-size: 15px&quot;&gt;SkuDataHandler&lt;/span&gt;&lt;/font&gt;" style="whiteSpace=wrap;html=1;fillColor=#F2CC8F;strokeColor=#E07A5F;fontColor=#393C56;" parent="zlpXtRvs97fulgu1hl_5-1" vertex="1">
          <mxGeometry x="890" y="290" width="200" height="40" as="geometry" />
        </mxCell>
        <mxCell id="vH2971F0jiOvivA1e4d8-54" value="区分subxml、新增或更新" style="text;html=1;align=center;verticalAlign=middle;resizable=0;points=[];autosize=1;strokeColor=none;fontColor=#393C56;" parent="zlpXtRvs97fulgu1hl_5-1" vertex="1">
          <mxGeometry x="840" y="371.5" width="150" height="20" as="geometry" />
        </mxCell>
        <mxCell id="vH2971F0jiOvivA1e4d8-55" value="XmlBatchProcessResult" style="text;html=1;align=center;verticalAlign=middle;resizable=0;points=[];autosize=1;strokeColor=none;fontColor=#393C56;" parent="zlpXtRvs97fulgu1hl_5-1" vertex="1">
          <mxGeometry x="1090" y="300" width="140" height="20" as="geometry" />
        </mxCell>
        <mxCell id="vH2971F0jiOvivA1e4d8-66" style="edgeStyle=orthogonalEdgeStyle;curved=0;rounded=1;sketch=0;orthogonalLoop=1;jettySize=auto;html=1;exitX=0.5;exitY=0;exitDx=0;exitDy=0;entryX=0.5;entryY=1;entryDx=0;entryDy=0;fontColor=#393C56;strokeColor=#E07A5F;fillColor=#F2CC8F;" parent="zlpXtRvs97fulgu1hl_5-1" source="vH2971F0jiOvivA1e4d8-58" target="R8RDPjUa0YeL7c6S2yjw-37" edge="1">
          <mxGeometry relative="1" as="geometry" />
        </mxCell>
        <mxCell id="vH2971F0jiOvivA1e4d8-58" value="&lt;font face=&quot;Comic Sans MS&quot;&gt;&lt;span style=&quot;font-size: 15px&quot;&gt;ExitHandler&lt;/span&gt;&lt;/font&gt;" style="whiteSpace=wrap;html=1;fillColor=#F2CC8F;strokeColor=#E07A5F;fontColor=#393C56;" parent="zlpXtRvs97fulgu1hl_5-1" vertex="1">
          <mxGeometry x="890" y="130" width="200" height="40" as="geometry" />
        </mxCell>
        <mxCell id="vH2971F0jiOvivA1e4d8-59" value="&lt;font style=&quot;font-size: 12px&quot;&gt;&lt;span style=&quot;font-family: &amp;#34;comic sans ms&amp;#34;&quot;&gt;delNotExistOuterIds、&lt;br&gt;&lt;/span&gt;&lt;span style=&quot;font-family: &amp;#34;comic sans ms&amp;#34;&quot;&gt;delTempFile、&lt;br&gt;&lt;/span&gt;&lt;span style=&quot;font-family: &amp;#34;comic sans ms&amp;#34;&quot;&gt;updateFeedStatus&lt;/span&gt;&lt;/font&gt;" style="text;html=1;align=center;verticalAlign=middle;resizable=0;points=[];autosize=1;strokeColor=none;fontColor=#393C56;" parent="zlpXtRvs97fulgu1hl_5-1" vertex="1">
          <mxGeometry x="1090" y="125" width="150" height="50" as="geometry" />
        </mxCell>
        <mxCell id="vH2971F0jiOvivA1e4d8-62" value="ArrayBlockingQueue&lt;br&gt;MQ&lt;br&gt;Redis" style="text;html=1;align=center;verticalAlign=middle;resizable=0;points=[];autosize=1;strokeColor=none;fontColor=#393C56;" parent="zlpXtRvs97fulgu1hl_5-1" vertex="1">
          <mxGeometry x="910" y="495" width="130" height="50" as="geometry" />
        </mxCell>
      </root>
    </mxGraphModel>
  </diagram>
</mxfile>
